<svg width="auto" height="auto" viewBox="0 0 24 16" fill="none" xmlns="http://www.w3.org/2000/svg">
<g clip-path="url(#clip0_16588_5040)">
<path d="M24 -0.00250244H0V15.995H24V-0.00250244Z" fill="#338AF3"/>
<path d="M11.8442 1.25026C11.8317 1.24815 11.8187 1.25885 11.8049 1.28541C11.7395 1.41618 11.7129 1.52037 11.6945 1.60006C11.677 1.67744 11.5597 1.67771 11.5107 1.69406C11.4616 1.71041 11.4528 1.86517 11.4045 1.80236C11.2511 1.60417 11.151 1.596 11.0203 1.61234C10.9426 1.65116 11.1408 1.75333 11.0857 1.87387C10.6934 1.87387 10.628 2.00463 10.5626 2.39693C10.44 2.27842 10.3256 2.56447 9.97414 2.65846C9.9803 2.74224 10.015 2.95885 9.97414 3.05079C9.96956 3.07376 10.049 3.12199 10.0235 3.21825C9.99818 3.31451 9.80876 3.34231 9.77725 3.45918C9.74567 3.57602 9.85771 3.54694 9.83464 3.63168C9.81155 3.71646 9.70857 3.72092 9.7637 4.00902C9.75148 4.06214 9.64721 4.1623 9.64721 4.1623C9.64721 4.1623 9.5718 4.24683 9.68425 4.3648C9.49909 4.50861 9.51138 4.82738 9.51648 4.94689C9.32851 4.89786 9.18955 5.01223 9.18955 5.01223L9.25488 5.27382C8.73182 5.46995 8.54589 5.32484 8.46828 5.41678C8.39166 5.53223 8.19553 5.5818 7.81114 5.60151C7.74302 5.60912 7.70206 5.73148 7.48957 5.73148C7.29341 5.6661 7.16263 5.40455 6.90111 5.20842L6.31266 5.01223C6.1165 4.88145 6.05111 4.75074 5.7896 4.61997L5.33194 4.42377C5.005 4.22764 4.77826 3.55132 4.61275 3.70458C4.61275 4.16226 4.74349 4.81609 5.00501 5.14303C5.20117 5.2738 5.26657 5.33917 5.46273 5.40456C5.59347 5.60072 5.59344 5.60071 5.7896 5.73148C5.46269 5.86222 5.46271 5.79684 5.33194 6.12375C5.53423 6.19526 5.40549 6.29179 5.51175 6.37608C5.61798 6.46034 5.6793 6.42816 5.76307 6.48948C5.8223 6.46903 5.7896 6.38528 5.7896 6.38528C5.7896 6.38528 5.8652 6.24839 5.92039 6.31994C6.03278 6.59368 6.18192 6.51607 6.18192 6.51607C6.19828 6.58146 6.15124 6.73056 6.18904 6.75517C6.30653 6.83075 6.19824 7.0126 6.21865 7.03712C6.34127 7.08618 6.35556 6.83482 6.39336 6.84502C6.43117 6.85531 6.44346 6.843 6.50885 6.843C6.50885 7.10452 6.50884 7.10451 6.63958 7.36606C6.63958 7.36606 6.49251 7.36809 6.44244 7.38647C6.52112 7.59289 6.11449 7.80939 6.12062 7.89523C6.10633 7.93813 6.18603 8.57564 6.24732 8.67371C6.28616 8.73503 5.855 8.67371 5.855 8.67371C5.855 9.19677 5.98579 9.32751 6.50885 9.3929C6.50885 9.3929 6.41484 9.21312 6.44345 9.19677C6.58442 9.06803 6.57425 9.4583 6.57425 9.4583C7.13406 9.6953 6.50887 9.62787 6.77038 9.98136L7.03191 9.91602C7.0973 10.6352 7.22805 10.2429 7.09731 11.0275H7.42417V11.4198C8.07801 11.2236 7.88187 11.5506 8.27416 11.6813L8.73182 11.8121L9.25488 12.0737V11.9429C9.25488 11.9429 10.0599 11.9898 10.1396 12.0164C10.3154 12.0246 10.2152 11.8223 10.4768 11.8223C10.4941 11.8223 10.7751 12.0118 10.8515 11.7641C10.8322 12.0189 11.3431 11.8999 11.4534 11.8979C11.574 11.8979 12.2666 12.3596 12.6589 12.2289C12.851 12.1594 12.851 11.9061 12.9818 11.9429C13.0247 11.9429 13.2433 12.5313 13.2433 12.5313C13.3168 12.7132 13.3164 12.7635 13.2283 12.9696C13.1791 13.1123 13.3404 13.1839 13.0596 13.3739C12.8442 13.5025 12.9528 13.5531 12.8997 13.6864C12.8302 13.7788 12.6155 13.7782 12.6487 13.9146C12.6896 14.0453 13.1085 13.9902 13.1779 14.2967C13.2627 14.3406 13.2546 14.1935 13.4101 14.1891C13.4879 14.187 13.4958 14.3251 13.5833 14.3026C13.7203 14.2666 13.6969 14.2251 13.8317 14.2967C13.9318 13.9167 14.0341 14.5909 14.6777 14.364C14.8028 14.3426 14.9488 14.4961 14.9856 14.4897C15.0224 14.4833 15.1238 14.2413 15.1757 14.2341C15.2277 14.2269 15.2469 14.3095 15.3072 14.3021C15.3676 14.2947 15.5448 14.0585 15.6068 14.0515C15.6687 14.0445 15.6619 14.2379 15.6876 14.2353C15.7133 14.2327 15.7279 14.2313 15.7279 14.2313L16.0548 14.1659C16.0548 14.1659 15.9976 14.3294 15.9935 14.3744C16.0114 14.381 16.1447 14.2262 16.2437 14.1639C16.3427 14.1018 16.4237 13.94 16.4801 14.1002C16.6073 13.932 16.6864 13.952 16.8541 13.8967C17.0069 13.6388 17.1663 13.6592 17.2317 13.6428C17.3624 13.6428 17.4095 13.6469 17.4932 13.7082C17.5198 13.6408 17.3624 13.5774 17.3624 13.5774C17.3624 13.5774 17.4973 13.2015 17.8038 13.1423C17.8201 13.0606 17.5504 12.8889 17.624 12.7275C17.9059 12.7193 18.2676 12.5129 18.2778 12.4659C18.2594 12.3474 18.1409 12.3168 18.147 12.2044C18.2206 12.2126 18.4739 12.2044 18.4739 12.2044C18.2778 11.8775 18.4086 11.8121 18.4739 11.4852L18.6701 11.5506C18.8009 11.3544 18.8009 11.3544 19.0624 11.289C19.1298 10.911 18.952 10.8783 18.9316 10.5044C19.2789 10.5678 19.0706 9.97116 19.5855 9.98136C19.5201 9.19675 19.7162 9.3929 19.7816 8.86984C19.5405 8.86984 19.3689 8.60627 19.3852 8.58582C19.6468 8.25891 19.2626 8.17927 19.6549 7.91772C19.4587 7.46005 19.3893 7.49681 19.5855 7.03913C18.8009 7.23529 19.2586 6.84297 18.2778 6.64681C18.4086 6.45064 18.6701 6.12378 18.4085 5.92761C18.4739 5.79687 18.5782 5.72941 18.5782 5.59867C18.5782 5.50057 18.3641 5.11289 18.4014 4.8825C18.2609 4.65825 18.2451 4.55455 18.2124 4.42377C18.147 4.03148 18.2124 3.76994 18.2124 3.70458C18.147 3.57381 18.0163 3.44304 17.8855 3.37765C17.7547 3.31227 17.7118 3.38378 17.5811 3.44916C17.5177 3.44303 17.596 3.34866 17.4887 3.27659C17.3589 3.2985 17.2968 3.23845 17.2327 3.12123C17.095 3.05916 16.9144 3.03186 16.5599 2.91073C16.428 2.88768 16.3817 2.87302 16.2673 2.85667C16.2193 2.85361 16.1697 2.98286 16.1158 3.03315C16.0619 3.08347 16.0037 3.05482 16.0037 3.05482C16.0037 2.88525 15.7646 2.62373 15.7933 2.39693C15.686 2.36322 15.7207 2.447 15.5979 2.46769C15.5223 2.47438 15.405 2.2049 15.309 2.2049C15.2518 2.19468 14.4999 2.60125 14.2813 1.99849C14.2445 1.9515 14.0745 2.09705 13.9707 1.93719C13.8971 1.64093 13.7664 1.74511 13.6274 1.60617C13.4395 1.6266 13.3087 1.72882 13.1125 1.67774C12.851 1.60623 12.2278 1.54487 11.952 1.53466C11.9152 1.37835 11.8819 1.25658 11.8442 1.25026ZM4.60455 4.24604C4.54939 4.2481 4.48196 4.2379 4.50444 4.32574C4.53715 4.25832 4.60252 4.25013 4.60455 4.24604ZM4.56675 4.44985C4.53964 4.45053 4.48758 4.46006 4.50444 4.52596C4.53715 4.45851 4.58003 4.45446 4.58206 4.45036C4.58206 4.45036 4.57579 4.44963 4.56675 4.44985ZM4.98132 5.41684C4.98338 5.42094 5.01193 5.43111 5.04464 5.49856C5.06712 5.41069 4.98132 5.41684 4.98132 5.41684ZM19.9369 9.27029C19.9178 9.31326 19.9212 9.35621 19.9409 9.38685C19.9764 9.33369 19.9464 9.30913 19.9369 9.27029Z" fill="white" stroke="white" stroke-width="0.0533333" stroke-linejoin="round"/>
</g>
<defs>
<clipPath id="clip0_16588_5040">
<rect width="24" height="16" fill="white"/>
</clipPath>
</defs>
</svg>
