<svg width="auto" height="auto" viewBox="0 0 24 16" fill="none" xmlns="http://www.w3.org/2000/svg">
<g clip-path="url(#clip0_16588_5086)">
<path d="M24 -0.00250244H0V15.995H24V-0.00250244Z" fill="#496E2D"/>
<path d="M12.75 10.369C14.1307 10.369 15.25 9.24976 15.25 7.86905C15.25 6.48834 14.1307 5.36905 12.75 5.36905C11.3693 5.36905 10.25 6.48834 10.25 7.86905C10.25 9.24976 11.3693 10.369 12.75 10.369Z" fill="#F8C700"/>
<path d="M13.5296 9.92621C14.6657 9.92621 15.5867 9.00519 15.5867 7.86906C15.5867 6.73293 14.6657 5.81192 13.5296 5.81192C12.3934 5.81192 11.4724 6.73293 11.4724 7.86906C11.4724 9.00519 12.3934 9.92621 13.5296 9.92621Z" fill="#496E2D"/>
<path d="M4.86905 7.9881C6.31551 7.9881 7.4881 6.81551 7.4881 5.36905C7.4881 3.92259 6.31551 2.75 4.86905 2.75C3.42259 2.75 2.25 3.92259 2.25 5.36905C2.25 6.81551 3.42259 7.9881 4.86905 7.9881Z" fill="#F8C700"/>
<path d="M18.7502 11.0119L18.9155 11.5258L19.4203 11.3346L19.1216 11.7843L19.5859 12.0598L19.048 12.1066L19.1221 12.6413L18.7502 12.25L18.3783 12.6413L18.4524 12.1066L17.9146 12.0598L18.3788 11.7843L18.0801 11.3346L18.5849 11.5258L18.7502 11.0119Z" fill="#F8C700"/>
<path d="M15.7502 6.2619L15.9155 6.77582L16.4203 6.58463L16.1216 7.03428L16.5859 7.30978L16.048 7.35656L16.1221 7.8913L15.7502 7.5L15.3783 7.8913L15.4524 7.35657L14.9146 7.30978L15.3788 7.03428L15.0801 6.58463L15.5849 6.77582L15.7502 6.2619Z" fill="#F8C700"/>
<path d="M18.7502 3.0119L18.9155 3.52582L19.4203 3.33463L19.1216 3.78428L19.5859 4.05978L19.048 4.10656L19.1221 4.6413L18.7502 4.25L18.3783 4.6413L18.4524 4.10657L17.9146 4.05978L18.3788 3.78428L18.0801 3.33463L18.5849 3.52582L18.7502 3.0119Z" fill="#F8C700"/>
<path d="M21.4167 5.46191L21.582 5.97583L22.0868 5.78464L21.7881 6.23429L22.2524 6.50979L21.7145 6.55658L21.7886 7.09131L21.4167 6.70001L21.0448 7.09132L21.1189 6.55658L20.5811 6.50979L21.0453 6.23429L20.7466 5.78464L21.2514 5.97583L21.4167 5.46191Z" fill="#F8C700"/>
<path d="M19.9501 7.86905L20.0808 8.18927L20.4257 8.21454L20.1615 8.43772L20.244 8.77356L19.9501 8.59127L19.6562 8.77356L19.7388 8.43772L19.4746 8.21454L19.8195 8.18927L19.9501 7.86905Z" fill="#F8C700"/>
<path d="M4.23436 7.35568C4.19168 7.4885 4.14666 7.53375 3.9736 7.56783C3.80288 7.60192 3.54212 7.46793 3.70351 7.33805C3.85756 7.21699 4.01962 7.18613 4.15767 7.07712C4.37141 6.9061 4.66485 6.55231 4.80423 6.21792C4.95662 5.85208 4.93027 4.82275 4.92327 4.30117C4.92327 4.2953 4.90493 4.29148 4.9026 4.28913C4.89259 4.27737 4.88326 4.29265 4.89893 4.21625C4.90293 4.19657 4.92227 4.17629 4.92227 4.1566C4.92194 4.12134 5.07332 4.1951 5.113 4.25827C5.12234 4.27267 5.08399 4.31381 5.08399 4.32174C5.07899 4.82216 5.14568 5.81006 4.98096 6.25729C4.87926 6.53409 4.69319 6.74801 4.52513 6.94577C4.4241 7.07241 4.27838 7.20935 4.23436 7.35568Z" fill="#812400" stroke="#812400" stroke-width="0.004904"/>
<path d="M6.51337 4.15337C6.50237 4.16513 6.50403 4.21684 6.50403 4.21684C6.49536 4.22096 6.35265 4.1187 6.35265 4.1234C6.35265 4.14485 6.34931 4.18922 6.34931 4.18922C6.34931 4.18922 6.20159 4.07609 6.19559 4.08785C6.18892 4.10136 6.19626 4.16719 6.19626 4.16719L6.07988 4.06375C6.06688 4.05259 6.06888 4.07815 6.06788 4.11899C6.06755 4.12634 5.90682 4.0235 5.89715 4.02173C5.87615 4.01791 5.86981 4.07521 5.87081 4.08932C5.87181 4.09989 5.72242 4.02085 5.72909 4.03114L5.71809 4.09196C5.67641 4.08755 5.57737 4.05758 5.51802 4.06552C5.49868 4.06787 5.49968 4.07551 5.51669 4.08138C5.80379 4.17512 6.02486 4.31646 6.15358 4.51333C6.19726 4.58062 6.2106 4.6391 6.19893 4.65379C6.19893 4.65379 6.14757 4.56417 6.08922 4.55006C6.08155 4.5483 6.07622 4.60766 6.06821 4.60413C6.06821 4.60413 6.0242 4.51451 5.99252 4.4813C5.98385 4.47249 5.96984 4.52832 5.96051 4.52009C5.96051 4.52009 5.93783 4.46015 5.89282 4.41813C5.88648 4.41225 5.87481 4.47513 5.86781 4.46984C5.82113 4.43517 5.77778 4.34849 5.76044 4.34202C5.7481 4.33438 5.7461 4.41401 5.73443 4.40726C5.73443 4.40726 5.66807 4.29971 5.62872 4.28031C5.60305 4.26768 5.60405 4.33908 5.60405 4.33908C5.5537 4.29883 5.49801 4.23212 5.47167 4.20333C5.45933 4.18981 5.466 4.29089 5.45333 4.29501C5.43666 4.3 5.32762 4.21743 5.31561 4.21567C5.30728 4.21479 5.29794 4.23918 5.31895 4.25916L5.45366 4.38434C5.42765 4.38845 5.41765 4.38257 5.39931 4.38639C5.34396 4.39815 5.50268 4.47161 5.49968 4.48512C5.49968 4.48512 5.42332 4.48395 5.44899 4.496C5.46733 4.50481 5.56837 4.60942 5.56837 4.6056C5.56837 4.60384 5.51769 4.60648 5.51802 4.61824C5.51835 4.63998 5.60172 4.75193 5.60272 4.75135C5.60705 4.74782 5.5577 4.74664 5.55103 4.75752C5.53869 4.77809 5.63673 4.86859 5.61772 4.88387C5.61505 4.88622 5.5617 4.88475 5.53803 4.88887C5.52669 4.89092 5.49468 5.05342 5.50268 5.04695C5.48933 4.97973 5.47049 4.91344 5.44633 4.84861C5.43299 4.82099 5.38997 4.89063 5.38664 4.88446C5.38831 4.88446 5.39531 4.78543 5.38931 4.74018C5.38764 4.72755 5.35663 4.7534 5.3573 4.74136C5.3583 4.71403 5.36096 4.68464 5.35396 4.6579C5.34896 4.63792 5.32262 4.69434 5.31228 4.67906C5.31228 4.67906 5.34429 4.58092 5.33095 4.5533C5.32228 4.53508 5.30094 4.59737 5.28694 4.59972C5.28694 4.59972 5.29494 4.52332 5.28027 4.50393L5.23592 4.54213C5.22625 4.52979 5.22825 4.41078 5.21925 4.39991C5.21191 4.39051 5.16589 4.44428 5.15923 4.43605C5.15289 4.42812 5.17857 4.33997 5.17256 4.33321C5.16456 4.32292 5.11421 4.3576 5.11321 4.35671C5.09287 4.34026 5.0932 4.29853 5.08487 4.28325C5.06152 4.24153 4.92881 4.23624 4.91314 4.26562C4.90547 4.28031 4.9108 4.29883 4.91381 4.32145C4.91281 4.32204 4.84712 4.32586 4.84712 4.32175C4.84712 4.32175 4.85479 4.37111 4.85012 4.42518C4.84945 4.43253 4.78376 4.42342 4.78276 4.43076C4.77709 4.4816 4.79143 4.48659 4.79143 4.48659C4.79076 4.49012 4.74708 4.48072 4.74641 4.48483C4.74354 4.51459 4.75224 4.54433 4.77109 4.56916C4.77442 4.57328 4.70873 4.56505 4.70773 4.57004C4.69973 4.60824 4.6984 4.6388 4.7064 4.69287C4.70707 4.69699 4.64238 4.65467 4.64138 4.65908C4.63137 4.70433 4.64304 4.7534 4.63704 4.80071C4.63571 4.81158 4.59436 4.7681 4.59036 4.78073C4.58702 4.79307 4.5997 4.88299 4.59369 4.88828C4.59369 4.88828 4.524 4.88534 4.518 4.89004C4.46298 4.93177 4.47332 5.00464 4.47332 5.00464C4.45831 4.99553 4.46398 4.90767 4.47932 4.82775C4.48099 4.81922 4.42597 4.82246 4.42763 4.81452C4.42763 4.81452 4.48766 4.78514 4.50766 4.70374C4.512 4.68641 4.44964 4.68993 4.44964 4.68993C4.46698 4.6579 4.49733 4.65173 4.523 4.62088C4.53134 4.61089 4.45831 4.60619 4.45831 4.60325C4.45831 4.57269 4.52 4.558 4.55201 4.52597C4.56568 4.51245 4.48532 4.51157 4.48532 4.51157C4.50866 4.48512 4.58669 4.47337 4.62637 4.4387C4.64771 4.4196 4.54734 4.40079 4.54868 4.39756C4.55968 4.36964 4.65405 4.36083 4.70006 4.32909C4.7094 4.32263 4.64004 4.30059 4.64004 4.30059C4.64705 4.28884 4.7981 4.20862 4.7214 4.21596C4.68873 4.2189 4.62304 4.25622 4.61804 4.25064C4.61804 4.25064 4.6207 4.20362 4.61403 4.19833C4.58869 4.17718 4.50166 4.28795 4.47232 4.28355C4.47232 4.28355 4.46131 4.20421 4.44798 4.20186C4.41596 4.19716 4.37728 4.31763 4.34594 4.31763C4.3416 4.31763 4.33927 4.24799 4.32326 4.24417C4.30492 4.23976 4.28425 4.32233 4.26124 4.34055C4.2399 4.3573 4.23957 4.27591 4.2269 4.29148C4.20556 4.31646 4.20022 4.36847 4.17121 4.39139C4.1522 4.40608 4.14887 4.31969 4.12786 4.33115C4.10319 4.34467 4.10886 4.38933 4.08151 4.41137C4.06817 4.42195 4.05951 4.35436 4.04483 4.36435C4.03149 4.37317 4.02249 4.45545 4.00815 4.46867C3.99015 4.48542 3.96914 4.42518 3.95047 4.43458C3.93713 4.44164 3.94013 4.51304 3.92746 4.52861C3.90178 4.56035 3.88844 4.49012 3.87144 4.50099C3.85943 4.50834 3.83376 4.59032 3.82309 4.59678C3.79941 4.61148 3.78641 4.55947 3.76807 4.56681C3.75473 4.5721 3.72839 4.67789 3.71738 4.67524C3.71072 4.67348 3.69271 4.43399 3.80708 4.33291C3.99282 4.16836 4.46098 4.04906 4.45765 4.03084C4.45031 3.9944 4.38262 3.99852 4.33527 4.00733C4.32693 4.00851 4.33127 3.94269 4.33027 3.94269C4.28792 3.94151 4.25024 3.96179 4.20956 3.98148C4.19722 3.98794 4.23523 3.91565 4.2219 3.92183C4.16988 3.94621 4.11186 3.95327 4.07718 3.98265C4.06784 3.99029 4.08751 3.92711 4.08751 3.92711C4.06184 3.92212 4.01082 3.95209 3.99048 3.98059C3.98048 3.99441 3.99115 3.90684 3.98348 3.92241C3.98348 3.92241 3.89278 3.9471 3.88344 3.97766C3.88344 3.97766 3.87577 3.92212 3.86344 3.92506C3.82742 3.9327 3.79541 3.98206 3.76707 3.98941C3.76707 3.98941 3.77907 3.93975 3.76974 3.94151C3.70171 3.95562 3.62769 3.98941 3.62769 3.98941C3.66603 3.91183 3.81175 3.83073 4.06784 3.80899C4.20142 3.80072 4.33565 3.80744 4.46732 3.82897C4.5997 3.85365 4.70407 3.86776 4.68272 3.85101C4.59536 3.78166 4.45364 3.77314 4.41463 3.75698C4.38695 3.74552 4.50866 3.70761 4.48465 3.70232C4.46031 3.69762 4.35161 3.69057 4.35161 3.69057C4.32827 3.67558 4.43064 3.64649 4.4153 3.62475C4.38462 3.58155 4.20322 3.62093 4.18755 3.60418C4.18255 3.59889 4.26558 3.55922 4.26224 3.55335C4.2489 3.5316 4.08751 3.5698 4.08351 3.55041C4.08351 3.55041 4.13253 3.52102 4.16754 3.49693C4.17154 3.49399 4.02316 3.46167 4.02316 3.46167C4.04152 3.45071 4.06149 3.44201 4.08251 3.43581C4.11386 3.42611 3.95247 3.39232 3.95247 3.39232C4.15687 3.3168 4.68773 3.53131 4.7931 3.75404C4.82044 3.80723 4.82144 3.74934 4.81544 3.70438C4.8101 3.6559 4.80243 3.61329 4.80877 3.56921C4.8111 3.55599 4.85212 3.60418 4.85545 3.59125C4.86579 3.54424 4.83444 3.49223 4.84878 3.43963C4.85345 3.422 4.90847 3.49164 4.91547 3.47401C4.93581 3.42552 4.9008 3.35735 4.91481 3.29036C4.92047 3.2642 4.97249 3.34619 4.98983 3.32297C5.01017 3.29594 5.0015 3.19544 5.01117 3.18016C5.01884 3.16782 5.06519 3.22835 5.06919 3.21689C5.13188 3.03265 5.04852 3.00973 5.16923 3.11346C5.17323 3.11728 5.19991 3.00474 5.20458 3.00827C5.25393 3.09348 5.33462 2.94773 5.36263 2.96125C5.3833 2.97153 5.30594 3.02825 5.30528 3.05352C5.30494 3.06586 5.3763 3.06674 5.3763 3.06674C5.37464 3.0876 5.24059 3.14667 5.23625 3.16959C5.23292 3.18869 5.33095 3.18428 5.33095 3.18428C5.32795 3.20984 5.21625 3.23423 5.21024 3.26185C5.20691 3.27654 5.2626 3.28007 5.2606 3.29564C5.25759 3.31915 5.15256 3.36558 5.14922 3.38967C5.14689 3.40613 5.21625 3.41318 5.21791 3.42846C5.21991 3.44727 5.07853 3.51044 5.0782 3.52837C5.0782 3.55305 5.13488 3.54012 5.16023 3.55276C5.19657 3.57039 5.04452 3.64209 5.03785 3.66266C5.03285 3.68029 5.09887 3.66471 5.10121 3.68087C5.10387 3.70232 5.02651 3.73465 5.00884 3.77138C4.99117 3.80752 5.00917 3.81692 5.03452 3.80252C5.08553 3.77343 5.29094 3.59742 5.34562 3.55041C5.45703 3.46183 5.59932 3.40929 5.7491 3.40143C5.76577 3.40554 5.66174 3.4649 5.66107 3.48635C5.66107 3.49193 5.70775 3.50016 5.70575 3.50163C5.67708 3.52514 5.58738 3.55246 5.58738 3.55246L5.61305 3.58978C5.60705 3.60065 5.5647 3.60359 5.49701 3.62181C5.49701 3.62181 5.5477 3.64708 5.54369 3.64943C5.50802 3.67294 5.43832 3.68969 5.43832 3.68969L5.50701 3.70849C5.51102 3.71907 5.35229 3.7702 5.35229 3.7702C5.35229 3.7702 5.40198 3.80488 5.39964 3.80664C5.38764 3.81634 5.27127 3.83808 5.27127 3.83808C5.26926 3.83955 5.35329 3.86071 5.35296 3.86129C5.32228 3.88598 5.23792 3.89391 5.21825 3.93475C5.21825 3.93475 5.20691 3.95797 5.24025 3.95356C5.3713 3.91507 5.57437 3.83573 5.96818 3.86688C6.37099 3.90919 6.67776 4.19157 6.67243 4.21949C6.67243 4.21949 6.52837 4.13633 6.51337 4.15337Z" fill="#19472C" stroke="#19472C" stroke-width="0.004904"/>
</g>
<defs>
<clipPath id="clip0_16588_5086">
<rect width="24" height="16" fill="white"/>
</clipPath>
</defs>
</svg>
