<svg width="auto" height="auto" viewBox="0 0 24 16" fill="none" xmlns="http://www.w3.org/2000/svg">
<g clip-path="url(#clip0_16588_5100)">
<path d="M0 -0.0062561H24V15.9912H0V-0.0062561Z" fill="#012169"/>
<path d="M0 -0.0062561H24V15.9987" fill="#6DA544"/>
<path d="M22.589 5.012C22.505 4.964 22.4474 5.0024 22.3346 4.964C22.241 4.9328 22.2578 4.8992 22.1762 4.8728C22.0802 4.8416 22.0346 4.8824 21.869 4.8992C21.8114 4.904 21.7202 4.9112 21.6674 4.904C21.4538 4.8752 21.2858 4.544 21.2162 4.292C21.1226 3.9656 21.1874 3.7424 21.1442 3.272C21.1346 3.1664 21.1106 3.0128 21.053 2.8424C21.0122 2.72 20.9306 2.528 20.5346 2.0672C20.0954 1.5584 19.745 1.2752 19.6514 1.2008C19.5026 1.0808 19.3706 0.989605 19.2746 0.924805C19.289 1.0736 19.3226 1.2944 19.4042 1.5464C19.4978 1.8392 19.613 2.048 19.7234 2.2472C19.9082 2.5784 20.3738 3.4016 20.309 3.6416C20.3042 3.656 20.2898 3.7064 20.2754 3.7808C20.2562 3.8792 20.2514 3.9608 20.249 4.016C20.189 3.9968 20.0978 3.9632 19.9898 3.9104C19.7906 3.812 19.661 3.7088 19.5962 3.6584C19.4186 3.524 19.2458 3.464 18.9026 3.3392C18.4466 3.1736 18.0194 3.1088 17.6762 3.0872C17.8922 3.4016 18.1034 3.6128 18.2594 3.7448C18.5498 3.9944 18.857 4.1648 19.0082 4.2488C19.193 4.352 19.2698 4.3808 19.4618 4.5032C19.757 4.6928 19.8698 4.8152 19.9418 4.9112C20.0306 5.0288 20.1122 5.1368 20.1314 5.2952C20.1506 5.4488 20.1074 5.6144 19.9778 5.8208C19.6034 6.4136 18.8858 6.74 18.6674 6.8336C18.3938 6.9512 17.9642 7.1336 17.3234 7.2248C16.8386 7.2944 16.0682 7.3328 15.1274 7.0784C15.2258 7.1216 15.3362 7.1648 15.4562 7.2032C15.5858 7.244 15.7058 7.2728 15.8162 7.2944C15.8234 7.2968 15.6626 7.3016 15.4994 7.2656C15.3026 7.2224 15.1466 7.1456 15.0386 7.0808C15.1202 7.1456 15.2474 7.2344 15.4106 7.3064C15.6218 7.4 15.8378 7.4432 16.4762 7.4456C16.8602 7.448 17.0522 7.448 17.2418 7.4288C17.7842 7.3736 18.1898 7.2416 18.5738 7.1096C18.8978 6.9992 19.1738 6.9056 19.5314 6.7208C20.0474 6.452 20.2922 6.2216 20.8658 5.9888C21.0458 5.9168 21.137 5.8784 21.2522 5.8448C21.593 5.744 21.7226 5.7704 21.9578 5.6384C22.169 5.5208 22.2362 5.4008 22.2554 5.3648C22.2866 5.3072 22.2914 5.2712 22.325 5.228C22.4138 5.1152 22.5698 5.1104 22.6898 5.1248C22.6754 5.0936 22.6418 5.0456 22.589 5.012ZM22.1282 5.1224C22.1138 5.1416 22.0874 5.1488 22.0658 5.144C22.0346 5.1344 22.013 5.1008 22.0154 5.06L21.9434 5.0216H22.1282C22.1498 5.0528 22.1474 5.096 22.1282 5.1224Z" fill="#FFDA44"/>
<path d="M5.26672 6.58161L4.95952 6.29601L4.64992 6.57921L4.68352 6.16161L4.27072 6.09441L4.61872 5.85921L4.41232 5.49441L4.81312 5.61921L4.96912 5.23041L5.12032 5.62161L5.52112 5.50161L5.30992 5.86401L5.65312 6.10401L5.23792 6.16401L5.26672 6.58161ZM6.35152 10.052L6.02032 9.83121L5.69872 10.064L5.81152 9.68961L5.48512 9.46401L5.88592 9.45441L6.00592 9.08241L6.14032 9.44961L6.54112 9.44481L6.22432 9.68241L6.35152 10.052ZM5.32672 13.04L5.01952 12.7544L4.70992 13.0352L4.74352 12.6176L4.33072 12.5504L4.67872 12.3152L4.47232 11.9504L4.87312 12.0752L5.02912 11.6864L5.18032 12.0776L5.58112 11.9576L5.36992 12.32L5.71312 12.56L5.29792 12.62L5.32672 13.04ZM2.57632 9.54081L2.26912 9.25521L1.95952 9.53601L1.99312 9.11841L1.58032 9.05121L1.92832 8.81601L1.72192 8.45121L2.12272 8.57601L2.27872 8.18721L2.42992 8.57841L2.83072 8.45841L2.61952 8.82081L2.96272 9.06081L2.54752 9.12081L2.57632 9.54081ZM7.86832 8.62401L7.56112 8.33601L7.25152 8.61921L7.28512 8.20161L6.87232 8.13441L7.22032 7.89921L7.01392 7.53441L7.41472 7.65921L7.57072 7.27041L7.72192 7.66161L8.12272 7.54161L7.91152 7.90401L8.25472 8.14401L7.83952 8.20401L7.86832 8.62401Z" fill="white"/>
<path d="M11.9172 10.0844C13.1141 10.0844 14.0844 9.11411 14.0844 7.9172C14.0844 6.72029 13.1141 5.75 11.9172 5.75C10.7203 5.75 9.75 6.72029 9.75 7.9172C9.75 9.11411 10.7203 10.0844 11.9172 10.0844Z" fill="#FFDA44"/>
<path d="M13.1744 6.58549C13.0952 6.59948 13.0185 6.63764 12.9369 6.6368C12.8902 6.63632 12.8283 6.60231 12.7855 6.63151C12.7252 6.67259 12.7435 6.76793 12.7102 6.82517C12.6954 6.85067 12.6713 6.86632 12.6421 6.8695C12.616 6.87234 12.5861 6.86438 12.5669 6.88747C12.5471 6.91134 12.5531 6.94411 12.5518 6.97258C12.5503 7.00768 12.5417 7.04284 12.5196 7.0707C12.4972 7.09911 12.4638 7.1168 12.4374 7.14117C12.4019 7.17389 12.3738 7.21374 12.335 7.24325C12.2788 7.28601 12.2129 7.31 12.1507 7.34217C12.1067 7.36492 12.0692 7.39715 12.0238 7.41763C11.9883 7.43361 11.9498 7.44176 11.9132 7.45451C11.868 7.47027 11.8243 7.49017 11.7781 7.50314C11.7421 7.51326 11.7042 7.51638 11.6675 7.52301C11.6374 7.52846 11.6079 7.53684 11.5774 7.54058C11.5101 7.54885 11.442 7.50728 11.3768 7.49425C11.3297 7.48483 11.2813 7.47987 11.2335 7.4766C11.2098 7.47498 11.1872 7.47666 11.1639 7.47117C11.1117 7.45888 11.0755 7.41887 11.0288 7.39544C10.9763 7.36915 10.9133 7.36262 10.865 7.32864C10.7961 7.28022 10.7833 7.18656 10.7135 7.14001C10.6821 7.11909 10.6342 7.10393 10.5989 7.12502C10.5715 7.1414 10.5622 7.17251 10.5562 7.20189C10.5437 7.26294 10.532 7.32952 10.5518 7.39024C10.5728 7.45473 10.6246 7.48236 10.668 7.52947C10.7003 7.56443 10.7256 7.6243 10.719 7.67278C10.7122 7.7222 10.6762 7.7588 10.658 7.80381C10.6338 7.86348 10.6394 7.94286 10.5935 7.99147C10.5627 8.02411 10.5213 8.05981 10.4842 8.08487C10.4431 8.11262 10.4038 8.13227 10.3722 8.17233C10.3295 8.22663 10.2501 8.33096 10.3172 8.3962C10.3839 8.46114 10.5031 8.41361 10.5575 8.35653C10.5897 8.32279 10.6126 8.28185 10.648 8.25089C10.6708 8.23092 10.6994 8.21877 10.7298 8.21754C10.7789 8.21555 10.8277 8.22757 10.8773 8.2254C10.9703 8.22133 11.0773 8.20047 11.168 8.23114C11.2348 8.25375 11.2647 8.33307 11.3359 8.34649C11.3891 8.35654 11.4454 8.33687 11.4996 8.34058C11.5438 8.34361 11.587 8.35628 11.6307 8.36305C11.7072 8.37491 11.7822 8.38475 11.8559 8.40984C11.9525 8.44273 12.0398 8.52926 12.0637 8.63094C12.075 8.67866 12.0678 8.72986 12.0741 8.77835C12.0809 8.83086 12.1086 8.87791 12.1167 8.92985C12.1268 8.99448 12.115 9.05755 12.1308 9.1223C12.1563 9.22699 12.195 9.35335 12.3104 9.38761C12.3315 9.39386 12.354 9.39654 12.3759 9.39665C12.4203 9.39688 12.4632 9.39361 12.5069 9.38517C12.552 9.37648 12.6097 9.36956 12.6399 9.33108C12.6811 9.27854 12.6525 9.21345 12.6469 9.15506C12.6405 9.08951 12.6554 9.0233 12.6632 8.95852C12.6685 8.91431 12.6785 8.87131 12.6861 8.82749C12.6913 8.79756 12.692 8.76597 12.7032 8.73741C12.736 8.65375 12.7969 8.58172 12.816 8.49173C12.8252 8.44823 12.8068 8.41027 12.7977 8.36888C12.787 8.31975 12.7847 8.26339 12.7902 8.21328C12.7969 8.15167 12.8475 8.11264 12.8817 8.06587C12.9018 8.03822 12.9152 8.00586 12.9387 7.98058C12.9622 7.95525 12.9948 7.9394 13.0143 7.91027C13.027 7.89125 13.034 7.86911 13.0444 7.84885C13.0702 7.79863 13.1092 7.73759 13.158 7.70746C13.192 7.68647 13.2307 7.68483 13.2686 7.67591C13.2993 7.66865 13.3273 7.65456 13.3545 7.63886C13.3824 7.62277 13.4132 7.60223 13.414 7.56632C13.4148 7.52874 13.3768 7.50266 13.3561 7.47624C13.3381 7.45312 13.3303 7.42326 13.33 7.39434C13.3296 7.36393 13.3258 7.32952 13.335 7.30016C13.3445 7.26964 13.3653 7.24378 13.3773 7.21417C13.3909 7.18044 13.3937 7.14377 13.391 7.10771C13.3873 7.05681 13.3516 7.01356 13.3313 6.96849C13.3183 6.93979 13.3135 6.90874 13.3059 6.87841C13.2991 6.85098 13.2895 6.82431 13.2841 6.79651C13.2748 6.74752 13.2915 6.6971 13.2824 6.6491C13.2757 6.6133 13.2535 6.58567 13.2153 6.58375C13.2018 6.58307 13.1877 6.58312 13.1744 6.58549Z" fill="#6DA544"/>
</g>
<defs>
<clipPath id="clip0_16588_5100">
<rect width="24" height="16" fill="white"/>
</clipPath>
</defs>
</svg>
