<svg width="24" height="16" viewBox="0 0 24 16" fill="none" xmlns="http://www.w3.org/2000/svg">
<g clip-path="url(#clip0_16588_5109)">
<path d="M24 -0.00250244H0V15.995H24V-0.00250244Z" fill="#0052B4"/>
<path d="M17.7712 10.5068C17.7712 10.5068 17.7046 10.6825 17.6667 10.6825C17.6287 10.6825 17.491 10.6066 17.491 10.6066C17.491 10.6066 17.3912 10.7681 17.339 10.7775C17.2867 10.787 17.149 10.7538 17.149 10.7538C17.149 10.7538 17.016 10.7538 17.0113 10.7348C17.0065 10.7159 17.0161 10.6779 17.0161 10.6779C17.0161 10.6779 16.8261 10.8297 16.7834 10.8202C16.7406 10.8109 16.5982 10.6304 16.5982 10.6304L16.5744 10.7254L16.3038 10.7159L16.0663 10.5639C16.0663 10.5639 15.9333 10.7823 15.9286 10.7775C15.9239 10.7727 15.6959 10.8297 15.6959 10.8297L15.6816 10.787L15.5297 10.6968C15.5297 10.6968 15.6484 10.5307 15.6484 10.5259C15.6484 10.5211 15.5914 10.5021 15.5914 10.5021L15.5059 10.5734L15.3303 10.6873L15.1545 10.6066L15.2305 10.4641L15.24 10.3596L15.3777 10.1507L17.0636 8.51227L17.8946 10.0462L17.7712 10.5068Z" fill="#6A4C2D" stroke="black" stroke-width="0.026496"/>
<path d="M18.9689 10.6062L19.4077 10.5903L19.2209 10.4981L20.8929 10.4351L20.6567 10.3451L20.4474 10.0615L19.581 9.9963C19.581 9.9963 19.5158 9.94683 19.4099 9.97147C19.4055 9.90411 19.3244 9.81627 19.3244 9.81627L18.7911 9.77573L18.458 10.0031L18.683 10.5792L18.9689 10.6062Z" fill="white" stroke="black" stroke-width="0.026496"/>
<path d="M17.2615 5.69223L17.3056 5.542C17.3056 5.542 17.3829 5.41164 17.3829 5.35401C17.3829 5.29658 17.4405 5.22822 17.4405 5.22822C17.4405 5.22822 17.6172 5.17735 17.6547 5.28565C17.8449 4.9983 18.0681 5.27233 18.0681 5.27233L18.1299 5.1994L18.2559 5.0448C18.2559 5.0448 18.4349 5.21272 18.4371 5.24133C18.4393 5.27015 18.4679 5.25028 18.4679 5.25028L18.6625 5.23478C18.6625 5.23478 18.7547 5.30711 18.7354 5.44462C18.8039 5.48516 18.8657 5.72303 18.8657 5.72303L17.2615 5.69223Z" fill="url(#paint0_linear_16588_5109)" stroke="black" stroke-width="0.026496"/>
<path d="M18.9692 7.47996C19.0028 7.45948 19.1085 7.42588 19.0956 7.27129C19.0827 7.11669 18.9487 7.09858 18.874 7.10377C18.7991 7.10892 18.7321 7.1733 18.7321 7.1733L18.4847 7.01612C18.4847 7.01612 18.6086 6.23516 18.7399 6.18626C18.8647 6.09625 18.8868 6.0573 18.8868 6.03682C18.8868 6.01615 18.8404 5.9645 18.8404 5.9645L18.0336 5.86911L17.2708 5.95935C17.2708 5.95935 17.2115 6.04956 17.2193 6.08572C17.227 6.12169 17.2296 6.16044 17.3662 6.26613C17.5174 6.38239 17.6213 7.04969 17.6213 7.04969C17.6213 7.04969 17.4075 7.15522 17.3945 7.14229C17.3816 7.12959 17.3173 7.11669 17.2837 7.12181C17.2503 7.127 17.1394 7.18364 17.1394 7.33049C17.1394 7.47756 17.2503 7.56258 17.2503 7.56258C17.2503 7.56258 17.9796 7.47756 18.0879 7.67842C18.1936 7.43618 18.8867 7.52127 18.9692 7.47993V7.47996Z" fill="#656263" stroke="black" stroke-width="0.026496"/>
<path d="M19.7549 6.66817C19.7549 6.66817 19.763 6.58334 19.8234 6.54298C19.884 6.50266 20.2876 6.48238 20.3846 6.54298C20.4814 6.60359 20.5177 6.90228 20.5177 6.90228C20.5177 6.90228 20.5784 7.00721 20.5823 7.08391C20.5863 7.16062 20.5944 7.21306 20.5944 7.21306C20.5944 7.21306 20.9174 7.63297 20.9213 8.01233C20.9577 8.27066 20.9496 8.96081 20.8488 9.22311C20.8447 9.55022 20.7075 9.76404 20.7075 9.76404C20.7075 9.76404 20.7397 9.82046 20.7357 9.8811C20.7316 9.9417 20.6994 9.99812 20.6994 9.99812L21.1715 10.2322L20.998 10.1676C20.998 10.1676 21.1757 10.3171 21.1715 10.3131C21.1675 10.3089 20.9738 10.2201 20.9738 10.2201L21.0908 10.3372C21.0869 10.3332 20.8043 10.208 20.8043 10.208C20.8043 10.208 20.9374 10.3332 20.9295 10.3292C20.9213 10.3252 20.7155 10.2282 20.7155 10.2282C20.7155 10.2282 20.8446 10.3656 20.8407 10.3574C20.8367 10.3493 20.6551 10.2767 20.6551 10.2767L20.663 10.3453C20.663 10.3453 20.5177 10.3372 20.5177 10.2282C20.445 10.1879 20.3967 10.1313 20.3967 10.1313L20.0617 10.0748L19.6821 8.94055L19.771 7.0233L19.7952 6.9265L19.7549 6.66817Z" fill="black" stroke="black" stroke-opacity="0.979" stroke-width="0.02484" stroke-linejoin="round"/>
<path d="M19.5012 12.7953C19.5012 12.7953 19.3068 12.3865 19.2101 12.3808C19.1226 12.2141 19.5139 10.8514 20.2708 10.7737C20.687 10.8079 20.305 11.2534 20.0314 11.1163C20.0655 11.2362 20.2023 11.4077 20.2023 11.4077C20.2023 11.4077 19.6607 11.6417 19.5012 12.7953Z" fill="#FFBB00" stroke="black" stroke-width="0.0263105"/>
<path d="M16.8957 12.8549C16.8957 12.8549 17.0567 12.3895 17.1543 12.3838C17.252 12.378 16.8957 10.8327 16.1203 10.8212C15.7009 10.8558 16.0858 11.3037 16.3615 11.1658C16.3271 11.2866 16.1892 11.4589 16.1892 11.4589C16.1892 11.4589 16.735 11.6944 16.8957 12.8549Z" fill="#FFBB00" stroke="black" stroke-width="0.026496"/>
<path d="M17.6073 9.94828C17.6053 9.9445 17.4147 10.0081 17.5381 10.2155C17.5475 10.1353 17.6333 10.0866 17.6333 10.0866C17.6333 10.0866 17.5026 10.2418 17.6409 10.3725C17.6578 10.2491 17.7363 10.21 17.7363 10.21C17.7363 10.21 17.6391 10.4959 17.738 10.5537C17.7494 10.4397 17.8221 10.3894 17.8221 10.3894C17.8221 10.3894 17.7343 10.6454 17.8128 10.7032C17.8221 10.6062 17.8875 10.5631 17.8875 10.5631C17.8875 10.5631 17.8484 10.8286 17.9511 10.8473C17.9531 10.7537 18.0278 10.6623 18.0278 10.6623C18.0278 10.6623 17.994 10.8789 18.1548 10.8884C18.1568 10.8062 18.1866 10.7127 18.1866 10.7127C18.1866 10.7127 18.2595 10.9425 18.366 10.9051C18.3642 10.8379 18.3678 10.7107 18.366 10.7107C18.364 10.7107 18.4332 10.9293 18.5604 10.8884C18.5417 10.8266 18.5677 10.7537 18.5677 10.7537C18.5677 10.7537 18.6351 10.8902 18.7565 10.8453C18.7772 10.8041 18.7509 10.7239 18.7509 10.7239C18.7509 10.7239 18.9284 10.9071 18.9826 10.7968C19.0369 10.6865 18.8405 10.6491 18.8405 10.6491H18.9733C18.9733 10.6491 18.9304 10.5371 18.7509 10.5126C18.8125 10.4846 18.8761 10.5053 18.8761 10.5053C18.8761 10.5053 18.8388 10.365 18.6556 10.3501C18.7267 10.3258 18.8052 10.3427 18.8052 10.3427C18.8052 10.3427 18.7807 10.21 18.579 10.1726C18.6108 10.137 18.6967 10.1484 18.6967 10.1484C18.6967 10.1484 18.6164 10.0232 18.5248 10.0305C18.4332 10.0381 17.6053 9.94649 17.6073 9.94828Z" fill="#00713D" stroke="black" stroke-width="0.026496"/>
<path d="M18.4238 10.6229C18.4238 10.6229 18.4967 10.6585 18.4949 10.6903M18.4669 10.5651C18.4669 10.5651 18.5603 10.6304 18.5585 10.679M18.5489 10.5313C18.5489 10.5313 18.6238 10.578 18.6274 10.6509M18.6741 10.5613C18.6741 10.5613 18.7117 10.6416 18.6986 10.6565M18.7491 10.6042C18.7546 10.6678 18.7433 10.6734 18.7433 10.6734M17.8276 10.2024C17.8276 10.2024 17.9154 10.2584 17.9081 10.3369M17.822 10.2698C17.822 10.2698 17.8631 10.3089 17.8538 10.3351M17.9305 10.2044C17.9305 10.2044 17.9884 10.2847 17.9697 10.3407M18.0295 10.2566C18.0295 10.2566 18.0557 10.3071 18.0315 10.3351M18.0762 10.2809C18.0762 10.2809 18.108 10.3314 18.0799 10.3483M18.0408 10.4472C18.0408 10.4472 18.1229 10.4659 18.1342 10.5275M18.0893 10.3912C18.0893 10.3912 18.1754 10.3967 18.1847 10.4884M18.2034 10.3594C18.2052 10.3594 18.2612 10.4586 18.2518 10.4902M18.3136 10.3687C18.3136 10.3687 18.3359 10.4641 18.3192 10.4939M18.3846 10.4061C18.3846 10.4081 18.3864 10.5164 18.3864 10.5164M18.2763 10.2566C18.2763 10.2566 18.3304 10.2771 18.3266 10.3296M18.3266 10.208C18.3266 10.208 18.3957 10.2473 18.3884 10.3221M18.407 10.1764C18.407 10.1764 18.4669 10.2473 18.4444 10.3258M18.5116 10.1931C18.5116 10.1931 18.4893 10.2809 18.4984 10.3165M18.5752 10.2529C18.5752 10.2529 18.536 10.2829 18.5565 10.3203M18.2352 10.5949C18.2352 10.5949 18.2481 10.6622 18.2352 10.6734M18.1491 10.5557C18.1491 10.5557 18.192 10.6304 18.1771 10.6678M18.0575 10.552C18.0575 10.552 18.1062 10.608 18.1042 10.6529M17.9828 10.5631C17.9828 10.5631 18.0277 10.6062 18.0239 10.6304M17.9436 10.6285C17.9436 10.6285 17.9866 10.6734 17.9846 10.6827" stroke="#3EC26D" stroke-width="0.02484" stroke-linecap="round"/>
<path d="M17.0139 7.56059C17.22 7.55682 17.4261 7.55323 17.6322 7.54949C17.6322 7.54949 18.0405 7.54949 18.0846 7.68203C18.1619 7.50536 18.515 7.5165 18.515 7.5165L19.1551 7.49442C19.1589 8.00952 19.1625 8.52459 19.1663 9.0397C19.0412 9.63922 18.6071 10.0625 18.1287 10.2427C17.5584 10.0587 17.1979 9.57682 17.0803 9.02856C17.058 8.53928 17.036 8.04984 17.0139 7.56059Z" fill="white" stroke="black" stroke-width="0.026496"/>
<path d="M17.2341 7.55485L18.1345 9.95421L18.9479 7.50259C18.6955 7.51891 18.1542 7.46285 18.087 7.69299C17.9829 7.48711 17.4134 7.57015 17.2341 7.55485Z" fill="#006B00" stroke="black" stroke-width="0.026496"/>
<path d="M17.8469 8.85389C17.8817 8.87197 17.8807 8.20269 17.9262 8.18202C17.9392 8.12656 17.9457 8.10234 17.962 8.04352C17.9229 7.97415 17.7476 7.97754 17.6826 8.03655C17.7118 8.12996 17.7247 8.16116 17.7247 8.16116C17.8126 8.30324 17.7951 8.869 17.8469 8.85389Z" fill="#FFC900" stroke="#006B00" stroke-width="0.0136918" stroke-linecap="round"/>
<path d="M17.6057 3.68096C17.6057 3.68096 17.6695 3.60867 17.6723 3.59136C17.6753 3.57398 17.9614 3.56243 18.1319 3.24442C18.2273 3.07674 18.1319 3.17504 18.1319 3.17504L18.1262 3.09408C18.1262 3.09408 18.2448 2.98134 18.2015 2.92061C18.1579 2.8599 18.1724 2.99869 18.1031 2.99581C18.0338 2.99293 18.0713 2.84544 18.0713 2.84544C18.0713 2.84544 18.0655 2.8281 18.0453 2.81942C18.0163 2.8223 18.025 2.87437 17.999 2.88013C17.973 2.88592 17.9499 2.75872 17.9499 2.75872C17.9499 2.75872 17.9066 2.7009 17.8688 2.88304C17.8891 3.07674 18.0135 3.03914 18.0135 3.16637C18.0135 3.29357 17.9036 3.39187 17.8718 3.39475C17.84 3.39763 17.8515 3.28778 17.8515 3.28778C17.8515 3.28778 17.8342 3.23574 17.8227 3.23574C17.8112 3.23574 17.8863 3.22419 17.8748 3.07962C17.8487 2.90618 17.8285 3.1201 17.7822 3.11142C17.7359 3.10278 17.7707 2.95242 17.7879 2.9351C17.8052 2.91779 17.7677 2.84544 17.6665 3.03046C17.6578 3.1201 17.6462 3.00736 17.626 3.01312C17.5914 3.08544 17.5972 3.13744 17.6462 3.20394C17.7186 3.27043 17.7649 3.33693 17.7619 3.37162C17.7591 3.40634 17.7214 3.48438 17.6695 3.48438C17.6174 3.48438 17.6723 3.38896 17.6695 3.35715C17.6665 3.32538 17.5799 3.20973 17.5799 3.20973C17.5799 3.20973 17.5191 3.11142 17.5248 3.10854C17.5306 3.10566 17.5191 3.0912 17.4903 3.19238C17.4612 3.29357 17.4265 3.12589 17.4265 3.12589C17.4265 3.12589 17.3861 3.25018 17.4728 3.32538C17.4064 3.3167 17.4006 3.34272 17.4006 3.34272C17.4006 3.37741 17.4902 3.39187 17.5018 3.45258C17.5133 3.51328 17.4092 3.54797 17.4092 3.54797C17.4092 3.54797 17.4527 3.60867 17.5739 3.49018C17.5769 3.56531 17.5278 3.61738 17.5278 3.61738C17.5682 3.63568 17.5999 3.63373 17.6057 3.68096Z" fill="#CDAD56" stroke="black" stroke-width="0.02484" stroke-linejoin="round"/>
<path d="M17.209 3.68097C17.209 3.68097 17.155 3.60075 17.1526 3.58497C17.15 3.56919 16.8867 3.60491 16.7621 3.28375C16.6811 3.13115 16.7621 3.22062 16.7621 3.22062L16.7671 3.14695C16.7671 3.14695 16.6808 3.04145 16.7176 2.98622C16.7545 2.93099 16.7393 3.05726 16.7867 3.05748C16.8456 3.05486 16.8137 2.92068 16.8137 2.92068C16.8137 2.92068 16.8186 2.90491 16.8358 2.897C16.8603 2.89966 16.8704 2.97879 16.8925 2.98404C16.9145 2.98929 16.9602 2.89092 16.9745 2.8707C16.9948 2.86782 16.994 2.78916 17.026 2.95489C17.0089 3.13115 16.8628 3.09697 16.8628 3.21271C16.8628 3.32846 16.956 3.4179 16.9831 3.42052C17.0101 3.42315 17.0004 3.32321 17.0004 3.32321C17.0004 3.32321 17.0151 3.27585 17.0248 3.27585C17.0347 3.27585 16.939 3.29422 16.9489 3.1627C16.971 3.03956 17.0198 3.17063 17.0592 3.1627C17.0985 3.15483 17.0546 3.03249 17.0659 3.0138C17.0685 2.99515 17.1264 2.91492 17.1488 3.09195C17.1562 3.17351 17.2007 3.02177 17.2178 3.02702C17.2474 3.09278 17.2048 3.18062 17.1631 3.24113C17.1017 3.30161 17.0739 3.36791 17.0765 3.3995C17.0789 3.43105 17.0934 3.47028 17.1377 3.47028C17.1818 3.47028 17.1526 3.41524 17.155 3.38635C17.1573 3.35745 17.2311 3.26372 17.2311 3.26372C17.2456 3.24062 17.2335 3.19742 17.2488 3.17745C17.2728 3.17771 17.2827 3.14433 17.3072 3.23639C17.3318 3.32846 17.3613 3.17588 17.3613 3.17588C17.3613 3.17588 17.3956 3.289 17.3219 3.35742C17.3783 3.34951 17.3833 3.37319 17.3833 3.37319C17.3833 3.40475 17.3565 3.4179 17.3465 3.47313C17.3366 3.52836 17.376 3.55995 17.376 3.55995C17.376 3.55995 17.3392 3.61521 17.236 3.50734C17.2335 3.57572 17.2754 3.62308 17.2754 3.62308C17.2408 3.63975 17.214 3.63796 17.209 3.68097Z" fill="#CDAD56" stroke="black" stroke-width="0.0218393" stroke-linejoin="round"/>
<path d="M18.7977 7.91274C18.7439 7.86388 18.7375 7.9066 18.7111 7.89566C18.698 7.89031 18.6879 7.87818 18.6765 7.86705C18.6668 7.8569 18.6551 7.85274 18.6422 7.84737C18.6372 7.8619 18.6324 7.87617 18.6274 7.8907C18.6225 7.90522 18.6412 7.92926 18.6407 7.95092C18.637 7.98311 18.6239 8.00993 18.5833 8.02087C18.5948 7.99802 18.6014 7.99703 18.5978 7.969C18.5962 7.95508 18.5571 7.93025 18.5619 7.91716C18.569 7.89588 18.5813 7.8714 18.5722 7.85015C18.5557 7.86148 18.5338 7.85553 18.5174 7.86247C18.5032 7.86865 18.5024 7.89466 18.483 7.90542C18.4631 7.91476 18.4192 7.91018 18.3824 7.88932C18.4049 7.87242 18.4234 7.88375 18.4458 7.86686C18.4569 7.85831 18.4565 7.82196 18.4677 7.81342C18.479 7.80484 18.5058 7.79591 18.5169 7.78737C18.5068 7.77585 18.5074 7.75777 18.4973 7.74625C18.4873 7.73473 18.4426 7.7371 18.4325 7.72577C18.4122 7.70273 18.4162 7.67252 18.3959 7.64964C18.4482 7.66833 18.4407 7.6938 18.4538 7.69178C18.4784 7.67985 18.5031 7.6777 18.5159 7.68305C18.5291 7.68862 18.5537 7.72081 18.5666 7.72615C18.5716 7.71166 18.5788 7.69338 18.5835 7.67886C18.5885 7.66436 18.5617 7.63934 18.5664 7.62481C18.5764 7.59601 18.6006 7.57038 18.6103 7.54135C18.6139 7.56938 18.6185 7.59281 18.6221 7.62065C18.6239 7.63454 18.6513 7.6419 18.6531 7.65582C18.6549 7.6699 18.6388 7.70212 18.6404 7.71623C18.6555 7.71326 18.6771 7.71524 18.692 7.71226C18.7071 7.70926 18.7171 7.6745 18.732 7.67153C18.762 7.66554 18.7836 7.66737 18.814 7.67313C18.7916 7.69396 18.7743 7.69258 18.7602 7.71166C18.7491 7.7202 18.7646 7.74823 18.7322 7.76788C18.72 7.77505 18.688 7.7665 18.6767 7.77505C18.6869 7.78657 18.697 7.7979 18.7071 7.80942C18.717 7.82094 18.7624 7.82631 18.7725 7.83783C18.7926 7.86068 18.8033 7.8881 18.7977 7.91274ZM17.4133 7.93639C17.4671 7.88753 17.4735 7.93025 17.5001 7.9193C17.513 7.91377 17.5231 7.90164 17.5345 7.8907C17.5442 7.88055 17.5559 7.87639 17.5688 7.87086C17.5738 7.88535 17.5788 7.89985 17.5836 7.91438C17.5885 7.92887 17.5701 7.95271 17.5704 7.97438C17.574 8.00676 17.5871 8.03338 17.6277 8.04452C17.6162 8.02167 17.6096 8.02046 17.6132 7.99265C17.615 7.97873 17.6539 7.9539 17.6491 7.94058C17.642 7.91953 17.6297 7.89489 17.6388 7.87361C17.6555 7.88513 17.6772 7.87918 17.6938 7.88593C17.7078 7.8923 17.7087 7.91831 17.728 7.92906C17.7481 7.93841 17.792 7.93383 17.8286 7.91297C17.8061 7.89588 17.7876 7.9074 17.7652 7.89031C17.7541 7.88196 17.7546 7.84538 17.7433 7.83703C17.7322 7.82849 17.7054 7.81937 17.6941 7.81079C17.7042 7.7995 17.7036 7.78119 17.7137 7.76967C17.7239 7.75834 17.7686 7.76071 17.7785 7.74919C17.7988 7.72638 17.795 7.69617 17.8151 7.6731C17.7628 7.69178 17.7706 7.71722 17.7575 7.71543C17.7326 7.7035 17.7079 7.70113 17.6951 7.7067C17.6821 7.71204 17.6573 7.74423 17.6444 7.7498C17.6394 7.7353 17.6325 7.71703 17.6275 7.7025C17.6225 7.68798 17.6495 7.66298 17.6446 7.64846C17.6348 7.61946 17.6104 7.59402 17.6007 7.565C17.5971 7.59284 17.5925 7.61626 17.5889 7.6443C17.5871 7.65818 17.5597 7.66554 17.5579 7.67946C17.5563 7.69338 17.5724 7.72577 17.5706 7.73969C17.5555 7.73668 17.5339 7.7387 17.519 7.73591C17.5041 7.73271 17.4941 7.69793 17.479 7.69495C17.449 7.689 17.4276 7.69079 17.397 7.69655C17.4194 7.71761 17.4367 7.71604 17.4508 7.7353C17.4619 7.74385 17.4464 7.77188 17.4788 7.79153C17.491 7.7987 17.5231 7.79015 17.5343 7.7987C17.5241 7.81002 17.514 7.82154 17.5041 7.83306C17.4939 7.84458 17.4486 7.84996 17.4387 7.86129C17.4184 7.88433 17.4077 7.91175 17.4133 7.93639Z" fill="#FFC900"/>
<path d="M18.7493 8.06735C18.7004 8.1053 18.3855 8.18498 18.3821 8.45862C18.3789 8.73228 18.4373 8.79465 18.3789 8.80162C18.2652 8.80162 18.249 8.49679 18.2521 8.36162C18.2555 8.22652 18.2587 8.24738 18.2587 8.24738C18.2587 8.24738 18.3366 8.26806 18.3302 8.33404C18.3237 8.3998 18.4081 8.17106 18.3789 8.10889C18.4308 8.16073 18.4992 8.14009 18.4992 8.1365C18.4992 8.13311 18.4602 8.09158 18.4439 8.06041C18.4276 8.02924 18.5023 8.07769 18.5023 8.07769C18.5023 8.07769 18.5055 8.02562 18.4405 8.02921C18.356 8.02921 18.4536 8.00137 18.4536 8.00137C18.4536 8.00137 18.5023 8.04649 18.5349 7.99801C18.4992 7.95983 18.4471 7.93897 18.4471 7.93897C18.4471 7.93897 18.4015 7.85254 18.3399 7.83526C18.2684 7.81775 18.2782 7.86623 18.1969 7.85948C18.1808 7.89049 18.1808 7.89404 18.2132 7.90441C18.1579 7.94255 18.1872 8.01865 18.1872 8.01865C18.1872 8.01865 18.275 7.9807 18.2716 8.0429C18.2684 8.1053 18.2197 8.09497 18.1872 8.05682C18.1579 8.03954 18.1482 8.0741 18.1482 8.0741L18.1937 8.12258C18.1937 8.12258 18.1061 8.11922 18.0832 8.17804C18.1319 8.17465 18.1579 8.18857 18.1579 8.18857C18.1579 8.18857 18.0572 8.23346 18.0474 8.25772C18.0377 8.28198 18.0345 8.2301 18.0313 8.2301C18.028 8.2301 17.9338 8.19532 17.9338 8.19532L17.9012 8.34514C17.9012 8.34514 17.9664 8.41014 18.0019 8.3893C18.0377 8.3686 18.1027 8.3062 18.1416 8.32351C18.028 8.41014 17.9143 8.53471 17.8525 8.55222C17.8364 8.53833 17.7811 8.48287 17.7583 8.51049C17.7357 8.53833 17.752 8.57289 17.7812 8.56953C17.8104 8.56594 17.687 8.59714 17.7128 8.64921C17.7388 8.70105 17.7357 8.69769 17.7583 8.68377C17.7812 8.66988 17.7388 8.66649 17.8233 8.64223C17.9077 8.61798 17.9046 8.59375 17.9046 8.59375C17.9046 8.59375 17.8883 8.6317 17.8428 8.64223C17.7973 8.65257 17.7617 8.65257 17.7714 8.66649C17.7812 8.68022 17.8006 8.70444 17.7941 8.71833C17.7876 8.73222 17.8883 8.64562 17.9143 8.71497C17.9825 8.71138 18.028 8.62834 17.9956 8.57983C17.9988 8.6317 18.0313 8.64921 18.0117 8.67343C17.9922 8.69769 18.1645 8.59375 18.08 8.53135C18.1027 8.58322 18.1061 8.62495 18.1061 8.62495C18.1061 8.62495 18.145 8.62137 18.1548 8.60748C18.1645 8.59375 18.1353 8.64562 18.1482 8.65596C18.1611 8.66649 18.2229 8.7253 18.1969 8.76684C18.1808 8.74258 18.1774 8.70444 18.1579 8.70802C18.1384 8.71138 18.0572 8.77042 18.0085 8.77378C17.9598 8.77714 18.0669 8.95404 18.0669 8.95404C18.0669 8.95404 17.9922 8.94348 17.9824 8.95046C17.9727 8.95743 17.924 8.88806 17.9143 8.92978C17.898 8.98166 17.9306 8.96079 17.9306 8.96079C17.9306 8.96079 17.8883 8.94012 17.8656 8.96438C17.8428 8.9886 17.8201 9.01286 17.8364 9.02319C17.8525 9.03353 17.924 9.03353 17.9338 9.03014C17.9435 9.02674 17.8525 9.03711 17.8462 9.04742C17.8396 9.05778 17.8267 9.09593 17.8462 9.10982C17.8656 9.1237 17.9143 9.10287 17.9175 9.09254C17.9208 9.08201 17.924 9.13049 17.924 9.13049C17.924 9.13049 18.0085 9.13746 18.0085 9.051C18.0085 8.96438 18.0151 9.11321 18.0151 9.11321C18.0151 9.11321 18.0995 9.12713 18.1027 9.04047C18.1061 8.95404 18.1124 9.09951 18.1124 9.09951C18.1124 9.09951 18.1677 9.08201 18.1677 9.06831C18.1677 9.05439 18.1645 9.2414 18.1256 9.29346C18.0637 9.2517 18.0248 9.32108 18.0248 9.32108C18.0248 9.32108 18.028 9.42143 18.0214 9.44566C18.0151 9.46991 18.0637 9.43196 18.0669 9.42143C18.0703 9.4111 18.1287 9.38348 18.1319 9.3765C18.1353 9.36956 18.1514 9.33497 18.1514 9.33497C18.1514 9.33497 18.1384 9.38348 18.1158 9.39042C18.0929 9.39718 18.0703 9.42143 18.08 9.44226C18.0898 9.4631 18.1255 9.47686 18.1384 9.49772C18.1514 9.51839 18.1969 9.3765 18.1969 9.3765L18.2003 9.4077C18.2003 9.4077 18.2587 9.39382 18.2652 9.36617C18.2716 9.33836 18.2035 9.3141 18.2587 9.26921C18.3139 9.22409 18.2587 9.31074 18.2587 9.31074C18.2587 9.31074 18.2782 9.3765 18.2911 9.3765C18.3042 9.3765 18.3366 9.2517 18.3042 9.22073C18.2716 9.18953 18.3529 9.25868 18.3529 9.25868C18.3529 9.25868 18.3984 9.13049 18.3497 9.11321C18.3008 9.09593 18.2782 9.08895 18.2782 9.08895C18.2782 9.08895 18.3042 9.05439 18.2911 9.051C18.2782 9.04745 18.3594 9.12713 18.3724 9.10626C18.3855 9.08559 18.4049 9.02319 18.3108 8.9886C18.2164 8.95404 18.3074 8.85686 18.3074 8.85686C18.3074 8.85686 18.366 8.9262 18.4081 8.88806C18.4503 8.8501 18.4049 8.8501 18.4049 8.8501C18.4049 8.8501 18.5249 8.77378 18.5283 8.73564C18.5055 8.73228 18.4666 8.73922 18.4666 8.73922C18.4666 8.73922 18.5349 8.6941 18.5186 8.62137C18.4926 8.65954 18.4568 8.65954 18.4568 8.65954C18.4568 8.65954 18.5154 8.60073 18.5055 8.54527C18.4699 8.57289 18.4731 8.59375 18.4503 8.58681C18.4276 8.57983 18.3887 8.36166 18.4797 8.34777C18.5705 8.33401 18.5218 8.45526 18.525 8.45526C18.5283 8.45526 18.6615 8.3998 18.525 8.30978C18.5576 8.29922 18.6257 8.36162 18.6257 8.36162C18.6257 8.36162 18.5965 8.20924 18.4503 8.30284C18.486 8.26466 18.5089 8.24044 18.5381 8.24738C18.5673 8.25433 18.6712 8.2438 18.6712 8.21282C18.6454 8.19196 18.5902 8.22316 18.5608 8.21282C18.5315 8.20226 18.7688 8.18498 18.7493 8.06735Z" fill="#FFC900" stroke="#006B00" stroke-width="0.0136918" stroke-linecap="round" stroke-linejoin="round"/>
<path d="M17.7195 8.15724C17.7195 8.15724 17.8495 8.0845 17.9144 8.17466M17.9664 8.31313C17.9631 8.31313 17.9209 8.35815 17.9111 8.35815M18.0542 8.45861C18.0542 8.45861 18.1743 8.46902 18.2523 8.34085" stroke="#006B00" stroke-width="0.0136954" stroke-linecap="round"/>
<path d="M18.1841 8.42047C18.1841 8.42047 18.1938 8.48982 18.2134 8.48982C18.2328 8.48982 18.1809 8.50713 18.1614 8.49321C18.1841 8.52443 18.1971 8.57987 18.1614 8.60057" stroke="#006B00" stroke-width="0.0136954" stroke-linecap="round"/>
<path d="M18.1223 9.29333C18.1223 9.29333 18.0801 9.34175 18.0281 9.34526Z" fill="#E80000"/>
<path d="M18.1223 9.29333C18.1223 9.29333 18.0801 9.34175 18.0281 9.34526" stroke="#006B00" stroke-width="0.0136954" stroke-linecap="round"/>
<path d="M18.1711 9.07161C18.1711 9.07161 18.1451 8.93314 18.1613 8.89841C18.1711 8.85339 18.2133 8.83608 18.2458 8.77725" stroke="#006B00" stroke-width="0.0136954" stroke-linecap="round"/>
<path d="M18.1581 8.97118C18.1581 8.97118 18.1256 9.05433 17.9827 9.02662M18.1971 8.76337C18.1971 8.76337 18.2068 8.87423 18.0769 8.83272M18.0378 8.26471C18.0378 8.26471 17.9858 8.31313 18.0054 8.37897" stroke="#006B00" stroke-width="0.0136954" stroke-linecap="round"/>
<path d="M18.2327 8.14343C18.2327 8.14343 18.3009 8.11572 18.3139 8.10183C18.3269 8.088 18.3497 8.06029 18.3562 8.03946C18.3627 8.01875 18.3107 7.98752 18.3367 7.9425C18.3529 7.92173 18.3756 7.91827 18.4147 7.9425C18.4536 7.96672 18.3789 7.86634 18.3399 7.86288C18.3009 7.8594 18.2749 7.89056 18.2652 7.88365C18.2555 7.87671 18.2684 7.91136 18.2522 7.91136C18.2359 7.91136 18.2846 7.93907 18.2815 7.95642C18.2782 7.97373 18.3334 8.03258 18.3302 8.04647C18.3269 8.06029 18.2489 8.13991 18.2327 8.14343Z" fill="#006B00"/>
<path d="M18.2817 7.91483C18.3113 7.90764 18.3161 7.91562 18.3109 7.94254C18.297 7.93507 18.2919 7.92877 18.2817 7.91483Z" fill="#FFC900" stroke="#FFC900" stroke-width="0.0136954" stroke-linecap="round" stroke-linejoin="round"/>
<path d="M18.0739 9.45794C18.0739 9.45794 18.0629 9.53045 18.0897 9.53645C18.0883 9.50839 18.0954 9.48928 18.102 9.48181C18.0963 9.47898 18.0751 9.45839 18.0739 9.45794ZM18.0136 9.36868C17.989 9.36495 17.9475 9.38667 17.9594 9.41292C17.9794 9.39459 17.9979 9.41439 18.0119 9.39572C18.0161 9.39052 18.015 9.37524 18.0136 9.36868ZM18.0134 9.31687C18.0134 9.31687 17.9746 9.31031 17.9692 9.33893C17.996 9.33531 18.0039 9.33226 18.0128 9.33825C18.0154 9.33214 18.013 9.31834 18.0134 9.31687Z" fill="#E80000" stroke="#006B00" stroke-width="0.0136954" stroke-linejoin="round"/>
<path d="M17.8493 8.90838C17.8493 8.90838 17.8725 8.91765 17.8791 8.943C17.8975 8.93078 17.9064 8.87704 17.8493 8.90838ZM17.7917 8.97003C17.7927 8.96958 17.8405 8.9387 17.8453 8.96822C17.8353 8.97897 17.8308 8.98598 17.8229 8.98836C17.8168 8.98836 17.8045 8.96822 17.7917 8.97003ZM17.787 9.07015C17.7878 9.0697 17.8176 9.04164 17.8291 9.06031C17.8405 9.07909 17.8199 9.07807 17.8199 9.07807C17.8199 9.07807 17.8094 9.07298 17.787 9.07015ZM17.7448 8.51266C17.7444 8.51266 17.7066 8.49716 17.6908 8.52522C17.7159 8.5285 17.7247 8.53789 17.736 8.54728C17.733 8.53551 17.7278 8.51775 17.7448 8.51266ZM17.6716 8.72263C17.6716 8.72263 17.6733 8.67545 17.6943 8.65622C17.7062 8.66323 17.7097 8.67443 17.7177 8.68846C17.7019 8.69219 17.6808 8.69321 17.6716 8.72263ZM17.7724 8.68891C17.7724 8.68891 17.7308 8.7095 17.7444 8.73201C17.758 8.71652 17.773 8.72127 17.773 8.72081C17.773 8.72036 17.773 8.68948 17.7724 8.68891Z" fill="#E80000" stroke="#006B00" stroke-width="0.0146084" stroke-linejoin="round"/>
<path d="M17.7127 8.2371C17.6977 8.25497 17.7311 8.29378 17.7661 8.28812C17.7749 8.24604 17.7215 8.22409 17.7127 8.2371Z" fill="#FFC900" stroke="#006B00" stroke-width="0.0146084" stroke-linejoin="round"/>
<path d="M17.7512 8.20485C17.7512 8.20485 17.7578 8.23811 17.788 8.22918C17.7833 8.2035 17.7622 8.18427 17.7622 8.18427C17.7609 8.19184 17.7665 8.2035 17.7512 8.20485ZM17.7714 8.30124C17.7714 8.30124 17.788 8.32036 17.8209 8.2811C17.8061 8.28574 17.7798 8.27171 17.7798 8.27171C17.7798 8.27171 17.7798 8.29886 17.7714 8.30124Z" fill="#E80000" stroke="#006B00" stroke-width="0.0146084" stroke-linejoin="round"/>
<path d="M17.7106 8.16087C17.6958 8.17863 17.7169 8.2034 17.7519 8.19786C17.7607 8.15578 17.7194 8.14786 17.7106 8.16087Z" fill="#FFC900" stroke="#006B00" stroke-width="0.0146084" stroke-linejoin="round"/>
<path d="M17.7245 7.99462C17.7245 7.99462 17.8644 7.95468 17.9387 8.01469C18.0129 8.07451 18.0129 8.02026 18.0129 8.02026C18.0129 8.02026 18.1214 8.0602 18.1528 8.05165C18.1842 8.04311 18.1299 8.05463 18.1726 8.0288C18.2156 8.00317 18.087 8.03456 18.0757 7.98031C18.0556 7.94613 18.0784 7.90321 18.0329 7.91752C18.0015 7.87757 18.0528 7.84916 18.0415 7.80623C18.0101 7.82909 17.9928 7.79769 17.9672 7.85472C17.9073 7.84339 17.9586 7.76053 17.893 7.75198C17.893 7.812 17.8445 7.81478 17.8416 7.84916C17.8132 7.86903 17.6876 7.94335 17.7245 7.99462Z" fill="url(#paint1_linear_16588_5109)"/>
<path d="M16.115 12.5445C16.2057 12.5227 16.6974 12.6532 16.887 12.8563C16.8466 12.4944 16.7464 12.2172 16.7464 12.2172C16.7464 12.2172 16.4535 12.1336 16.4132 12.1739C16.3543 12.2359 16.1771 12.4221 16.115 12.5445ZM15.9651 10.8729C15.9307 10.8787 15.8962 10.9017 15.8617 10.9591C15.8215 11.0567 15.7928 11.3037 15.7353 11.3612C15.6779 11.4186 15.6262 11.4243 15.6262 11.4762C15.6262 11.5279 15.632 11.6485 15.7871 11.6944C15.9422 11.7002 16.1892 11.4474 16.1892 11.4474C16.1892 11.4474 16.3156 11.3095 16.3672 11.1602C16.0686 11.2636 15.856 10.9877 15.9651 10.8729V10.8729Z" fill="#C01500" stroke="black" stroke-width="0.026496"/>
<path d="M20.2854 12.4869C20.1954 12.4652 19.6982 12.595 19.51 12.7969C19.5499 12.4372 19.6495 12.1614 19.6495 12.1614C19.6843 12.1521 19.9371 12.0784 19.977 12.1185C20.0354 12.1801 20.2238 12.3653 20.2854 12.4869ZM20.4247 10.825C20.4589 10.8308 20.471 10.8757 20.499 10.9329C20.5388 11.0299 20.5799 11.1714 20.637 11.2284C20.694 11.2857 20.7452 11.3701 20.7452 11.4216C20.7452 11.473 20.7333 11.5424 20.5793 11.5881C20.4255 11.5938 20.2024 11.3961 20.2024 11.3961C20.2024 11.3961 20.077 11.2592 20.0257 11.1106C20.3222 11.2135 20.5141 10.9488 20.4247 10.825Z" fill="#C01500" stroke="black" stroke-width="0.0263105"/>
<path d="M15.793 12.2288C15.793 12.2288 16.1031 12.4412 16.1089 12.5389C16.942 11.3037 19.0675 10.9188 20.2795 12.4527C20.4404 12.24 20.607 12.1713 20.607 12.1713C19.3318 10.5052 16.7925 10.7121 15.793 12.2287V12.2288Z" fill="#FFBB00" stroke="black" stroke-width="0.026496"/>
<path d="M18.9531 7.50301L19.0745 7.5L18.8577 7.77466L19.1178 8.07827L18.6061 8.72294L19.089 9.304C19.036 9.43414 18.9744 9.55258 18.8923 9.65971L18.6148 9.35309L19.1178 8.72589L18.7045 8.25754L18.9531 7.50298L18.9531 7.50301ZM17.2185 7.55782L17.0883 7.56083L17.3311 7.82371L17.074 8.14467L17.6088 8.72592L17.1664 9.3185C17.2194 9.44867 17.2956 9.59312 17.3774 9.70003L17.6405 9.36755L17.1 8.76627L17.4961 8.2633L17.2185 7.55782Z" fill="#1E5AA6" stroke="black" stroke-width="0.026496"/>
<path d="M17.8197 9.119L17.6289 9.37334L18.3111 10.1627C18.4315 10.1019 18.5261 10.0325 18.6293 9.94883L18.2735 9.53827L18.4182 9.11321L18.6263 9.35308L17.9759 10.1829C17.867 10.1366 17.7465 10.0643 17.6376 9.97465L17.9816 9.53827L17.8197 9.11897V9.119ZM17.6086 8.72294L17.733 8.8791L17.6519 8.66809L17.6086 8.72294Z" fill="#1E5AA6" stroke="black" stroke-width="0.026496"/>
<path d="M18.499 8.86108C18.5016 8.85807 18.5994 8.72793 18.5994 8.72793L18.5614 8.67609L18.499 8.86108Z" fill="#1E5AA6" stroke="black" stroke-width="0.0256548"/>
<path d="M19.9368 6.68944C19.9368 6.68944 20.0568 6.58672 20.1422 6.58371" stroke="#FFF700" stroke-width="0.026496" stroke-linecap="round"/>
<path d="M19.9539 6.67513C19.9566 6.67235 20.6702 6.57241 20.6929 6.54953M19.9566 6.68089C19.9594 6.67791 20.7557 6.61231 20.7557 6.61231M19.9539 6.68367C19.9539 6.68367 20.8014 6.64371 20.8529 6.68665" stroke="#FFF700" stroke-width="0.026496" stroke-linecap="round"/>
<path d="M19.9511 6.68088C19.9511 6.68088 20.7818 6.68664 20.7961 6.70648M19.9541 6.68088L20.7531 6.74645M19.9456 6.68664C19.9483 6.68664 20.7589 6.758 20.8388 6.86072" stroke="#FFF700" stroke-width="0.026496" stroke-linecap="round"/>
<path d="M20.8816 7.00617C20.8788 7.00341 20.6048 6.67791 19.9426 6.68367" stroke="#FFF700" stroke-width="0.026496" stroke-linecap="round"/>
<path d="M19.9456 6.68945C19.9456 6.68945 20.405 6.72081 20.5505 6.88062" stroke="#FFF700" stroke-width="0.026496" stroke-linecap="round"/>
<path d="M19.9539 6.68369C19.9539 6.68369 20.2506 6.62663 20.5617 7.00065" stroke="#FFF700" stroke-width="0.026496" stroke-linecap="round"/>
<path d="M19.7669 7.02325C19.7669 7.02325 20.1787 7.03955 20.1787 7.07989C20.1787 7.12023 19.8718 7.19694 19.8679 7.36644C19.8639 7.53595 20.102 7.54807 20.1181 7.7619C20.1341 7.97592 19.9324 8.00811 19.8921 8.06475C19.8516 8.09296 19.7548 8.39561 19.7669 8.57327C19.779 8.75093 19.8315 9.35225 19.9243 9.47347C19.997 9.52991 20.1059 9.71154 20.223 9.6551C20.34 9.59847 20.2593 9.39279 20.2472 9.33616C20.2351 9.27972 20.2957 9.18692 20.2957 9.10206C20.2957 9.01721 20.2512 8.94865 20.2554 8.92858C20.2593 8.90831 20.5823 9.00529 20.562 9.32403C20.5419 9.64298 20.4128 9.546 20.4128 9.546C20.4128 9.546 20.4531 9.93768 20.3521 9.99014C20.1705 10.0869 20.0374 9.96987 20.0374 9.96987L20.0545 10.0496L19.9164 9.97802C19.9164 9.97802 19.7387 9.72366 19.6984 9.61059C19.658 9.49772 19.6095 8.99317 19.6256 8.88407C19.6417 8.77517 19.6538 8.13728 19.6459 8.10509C19.6377 8.07269 19.6056 7.53993 19.6256 7.45925C19.6459 7.37857 19.7709 7.02325 19.7669 7.02325Z" fill="url(#paint2_linear_16588_5109)" stroke="black" stroke-width="0.026496"/>
<path d="M19.3232 6.91835C19.3232 6.91835 19.6098 6.63995 19.7753 6.67211C19.86 6.67211 19.7793 6.73275 19.7793 6.73275C19.7793 6.73275 19.9246 6.74485 19.9448 6.80946C19.9488 6.83765 19.8761 6.84581 19.8761 6.84581C19.8761 6.84581 19.9367 6.85794 19.9407 6.91038C19.9448 6.96286 19.3272 6.92232 19.3232 6.91835Z" fill="#FF7000" stroke="black" stroke-width="0.026496"/>
<path d="M19.3394 6.9062C19.3394 6.9062 19.6462 6.86588 19.7754 6.73672" stroke="black" stroke-width="0.026496"/>
<path d="M19.6499 6.82159C19.6499 6.82159 19.8758 6.81346 19.8758 6.84584" stroke="black" stroke-width="0.026496"/>
<path d="M20.4531 10.1233C20.4531 10.1233 20.6469 10.0788 20.6993 10.0102C20.7317 9.98598 20.9013 10.2646 20.4531 10.1233Z" fill="white" stroke="black" stroke-width="0.02484" stroke-linejoin="round"/>
<path d="M20.4008 8.52085C20.4008 8.52085 20.425 8.67029 20.3565 8.77102C20.3201 8.81138 20.211 8.88014 20.211 8.92862C20.211 8.97694 20.2514 9.04149 20.2434 9.09813C20.2353 9.15458 20.1748 9.21122 20.1788 9.2595C20.1788 9.30798 20.2474 9.56632 20.2392 9.57029M20.0457 8.03656C20.0457 8.03656 19.8923 8.08904 19.8599 8.24245" stroke="white" stroke-width="0.02484" stroke-linecap="round"/>
<path d="M19.981 6.82156C19.981 6.82156 20.0336 6.96684 20.2031 6.82953C20.094 6.68028 19.981 6.82556 19.981 6.82156Z" fill="#C75B00" stroke="black" stroke-width="0.026496"/>
<path d="M20.1061 6.81544C20.1061 6.82325 20.098 6.82959 20.088 6.82959C20.0779 6.82959 20.0698 6.82325 20.0698 6.81544C20.0698 6.80767 20.078 6.80133 20.088 6.80133C20.098 6.80133 20.1061 6.80767 20.1061 6.81544Z" fill="black"/>
<path d="M18.5947 6.48435C18.5947 6.48435 18.9162 6.83232 19.1243 6.82854C19.162 6.93069 19.0296 7.02566 18.9768 7.07097C18.8709 7.03699 18.7751 7.07712 18.5293 6.77466C18.5446 6.5817 18.5984 6.4919 18.5947 6.48435ZM19.0296 5.67498C19.0712 5.5464 19.1544 5.44426 19.2262 5.43293C19.2073 5.33456 19.3776 4.89974 19.873 4.73322C19.9032 4.95638 19.6612 5.17578 19.6612 5.17578C19.6612 5.17578 20.3911 5.05098 20.5385 4.86557C20.5234 4.94883 20.376 5.46691 19.5968 5.46314C19.8919 5.74314 19.5024 5.9663 19.3359 5.89814C19.6423 5.66365 19.249 5.52374 19.0296 5.67498Z" fill="white" stroke="black" stroke-width="0.026496"/>
<path d="M19.2793 5.49353C19.4268 5.39894 19.4796 5.39894 19.6008 5.41782C19.5138 5.42915 19.5138 5.43292 19.5138 5.43292C19.5138 5.43292 19.5062 5.44425 19.5591 5.49353C19.4987 5.47823 19.4456 5.44425 19.2793 5.49353Z" fill="#CCCCCD" stroke="#CCCCCC" stroke-width="0.026496"/>
<path d="M19.2227 5.43293C19.2227 5.43293 19.514 5.27792 19.6765 5.172" stroke="black" stroke-width="0.026496"/>
<path d="M18.9728 7.07059C18.9728 7.07059 19.3738 7.18025 19.4192 6.60537C19.3321 6.35577 19.2111 5.81865 19.3965 5.66361C19.2262 5.5464 19.041 5.66742 19.041 5.66742C19.0296 5.69385 18.8782 5.90944 19.0825 6.28761C18.5985 6.15904 18.7952 6.6167 18.7952 6.6167C18.814 6.54477 19.0712 6.4768 19.1356 6.84365C19.162 6.93446 18.9615 7.07437 18.9728 7.07059Z" fill="#0000FF" stroke="black" stroke-width="0.026496"/>
<path d="M19.4229 6.60916C19.4229 6.60916 19.8466 6.38221 19.835 5.84906C19.4757 5.85661 19.3472 6.3216 19.3472 6.3216L19.4229 6.60916Z" fill="#0000FF" stroke="black" stroke-width="0.026496"/>
<path d="M17.5246 6.5827C17.5246 6.5827 17.2108 6.85496 17.033 6.76792C16.9006 6.84741 16.7456 6.7075 16.7456 6.7075C16.7456 6.7075 16.927 7.37678 17.5777 6.89272C17.5663 6.74526 17.5322 6.59403 17.5246 6.5827Z" fill="white" stroke="black" stroke-width="0.026496"/>
<path d="M17.0291 6.75662C17.0556 6.61671 17.1653 6.54855 17.2523 6.68091C17.3695 6.70375 17.4868 6.22343 17.0707 6.30273C17.1879 5.67499 16.8363 5.44049 16.8363 5.44049C16.8363 5.44049 16.7115 6.13639 16.7682 6.26497C16.8249 6.39355 16.685 6.0267 16.2349 5.92455C16.2274 6.45038 16.738 6.6962 16.738 6.6962C16.738 6.6962 16.8817 6.82855 17.0291 6.75662Z" fill="#0000FF" stroke="black" stroke-width="0.026496"/>
<path d="M17.0706 6.29896C17.0706 6.29896 16.8741 6.46549 16.9194 6.69243M16.7719 6.27631C16.7719 6.27631 16.7266 6.43887 16.8249 6.66959" stroke="black" stroke-width="0.026496"/>
<path d="M16.7417 6.72261C16.7417 6.72261 16.8325 6.57516 17.0291 6.76415" stroke="black" stroke-width="0.026496"/>
<path d="M16.7795 5.7014C16.7795 5.69763 16.4808 5.7014 16.6585 6.00403C16.5261 6.04556 16.2312 5.85283 16.4354 5.59548C15.7659 5.58038 15.4937 5.25904 15.4937 4.96393C15.6903 5.16822 16.1593 5.08496 16.3257 5.20976C16.1215 5.02076 16.1631 4.75964 16.1631 4.75964C16.1631 4.75964 16.7342 4.92995 16.8362 5.4367C16.8022 5.53507 16.7871 5.70896 16.7795 5.7014Z" fill="white" stroke="black" stroke-width="0.026496"/>
<path d="M16.3201 5.19662C16.4303 5.30872 16.7134 5.34229 16.8572 5.46709" stroke="black" stroke-width="0.026496"/>
<path d="M16.4504 5.52751C16.4504 5.52751 16.6849 5.4973 16.7528 5.58038C16.6611 5.58038 16.6305 5.55772 16.498 5.607C16.5354 5.58793 16.5252 5.55394 16.5456 5.55394C16.566 5.55394 16.4606 5.52751 16.4504 5.52751Z" fill="#CCCCCD" stroke="#CCCCCC" stroke-width="0.0188387"/>
<path d="M17.6189 3.69325C17.6189 3.69325 17.7475 3.57977 17.8874 3.68189C17.8242 3.87081 17.5963 3.79913 17.5963 3.79913C17.5963 3.79913 17.6038 3.89369 17.5812 3.93907C17.6267 3.97337 17.6642 4.08659 17.6642 4.08659C17.6642 4.08659 17.8987 4.02985 17.948 4.13197C18.0378 4.11955 18.103 4.13197 18.103 4.13197C18.103 4.13197 18.2846 4.08659 18.3488 4.08659C18.4132 4.08659 18.6173 4.13952 18.6362 4.17734C18.6552 4.21513 18.7232 4.46854 18.7687 4.46477C18.814 4.46099 18.659 4.52525 18.6173 4.46099C18.5758 4.39667 18.5871 4.54419 18.5871 4.54419C18.5871 4.54419 18.7156 4.68032 18.7308 4.71059C18.7458 4.74077 18.6515 4.98659 18.7232 5.15689C18.6602 5.16265 18.6552 5.22864 18.6552 5.22864C18.6517 5.30355 18.5569 5.32323 18.5569 5.32323L18.5342 5.22109L18.4698 5.25904L18.4963 5.17955C18.4963 5.17955 18.5833 4.96771 18.5909 4.89974C18.5984 4.83158 18.5114 4.71059 18.4434 4.71059C18.3752 4.71059 18.3262 4.92617 18.3262 4.92617C18.3262 4.92617 18.2922 5.08873 18.3035 5.10384C18.3148 5.11894 18.258 5.05097 18.258 5.05097C18.258 5.05097 18.2278 5.14934 18.2051 5.17955C18.1825 5.20976 18.1332 5.22109 18.1332 5.22109C18.1332 5.22109 18.0992 5.12272 18.1105 5.08496C18.1219 5.0472 18.2959 4.89974 18.2808 4.79385C18.2655 4.68793 18.2808 4.71437 18.2769 4.71059C18.2731 4.70681 18.1862 4.63117 18.1825 4.58957C18.1787 4.54797 18.069 4.64253 17.9253 4.61225C17.8812 4.68912 17.876 4.88067 17.876 4.88067C17.876 4.88067 17.8609 5.11139 17.8911 5.13801C17.9215 5.16445 17.8156 5.22109 17.8156 5.22109L17.7399 5.32323C17.7399 5.32323 17.7135 5.25904 17.7135 5.26281C17.7135 5.26659 17.6604 5.30057 17.6604 5.30057L17.6908 5.22486C17.6888 5.16765 17.7644 5.01123 17.7644 4.87888C17.7644 4.74653 17.7739 4.6047 17.7739 4.6047C17.7739 4.6047 17.634 4.59712 17.6378 4.74077C17.6415 4.88467 17.6038 4.89222 17.6114 4.93373C17.6189 4.97523 17.6566 5.09251 17.6453 5.12669C17.634 5.16067 17.5887 5.172 17.5887 5.172L17.5774 5.19088C17.5774 5.19088 17.4375 5.25526 17.4413 5.28169C17.445 5.30813 17.4375 5.20598 17.4375 5.20598L17.4297 5.09629C17.4297 5.09629 17.513 5.04342 17.513 4.91107C17.513 4.77872 17.4939 4.75987 17.4977 4.72963C17.5014 4.69923 17.5205 4.58957 17.5168 4.57824C17.513 4.56688 17.4375 4.60848 17.4146 4.60848C17.392 4.60848 17.4564 4.52905 17.4639 4.47232C17.4715 4.41558 17.3882 4.52528 17.3202 4.46099C17.3518 4.39117 17.3995 4.37021 17.4071 4.31728C17.4146 4.26435 17.3542 4.36265 17.3012 4.32483C17.3055 4.27408 17.358 4.2303 17.358 4.2303C17.358 4.2303 17.3149 4.22499 17.2974 4.2303C17.2634 4.21894 17.3353 4.16598 17.3391 4.09037C17.3429 4.01475 17.2974 3.98445 17.2974 3.98067C17.2974 3.97689 17.2219 3.91261 17.2105 3.88614C17.1992 3.85968 17.1992 3.82941 17.1992 3.82941C17.1992 3.82941 17.0742 3.92016 16.9268 3.72729C17.0619 3.61197 17.2068 3.69702 17.2068 3.69702C17.2068 3.69702 17.2445 3.5911 17.4184 3.59869C17.5925 3.60627 17.6264 3.70461 17.6189 3.69325Z" fill="#923F00" stroke="black" stroke-width="0.026496"/>
<path d="M18.5706 5.64954C18.5735 5.64954 18.8917 5.65907 18.8949 5.82918C18.8981 5.9991 18.7973 5.95517 18.7941 5.95517C18.791 5.95517 18.561 5.92675 18.561 5.92675L18.5706 5.64954Z" fill="#0000FF" stroke="black" stroke-width="0.026496"/>
<path d="M18.2618 5.60221C18.2618 5.60221 18.6586 5.59926 18.6365 5.77235C18.6145 5.94563 18.5137 5.91104 18.5137 5.91104L18.3216 5.89513L18.2617 5.60224L18.2618 5.60221Z" fill="#FFFEFF" stroke="black" stroke-width="0.026496"/>
<path d="M18.0381 5.58331L18.268 5.60219C18.268 5.60219 18.4065 5.62107 18.4004 5.75346C18.394 5.88578 18.2585 5.88898 18.2585 5.88898L18.0349 5.87624L18.0381 5.58334L18.0381 5.58331Z" fill="#0000FF" stroke="black" stroke-width="0.026496"/>
<path d="M17.4997 5.64954C17.4965 5.64954 17.1783 5.65907 17.1751 5.82918C17.1721 5.9991 17.2729 5.95517 17.2761 5.95517C17.2792 5.95517 17.5092 5.92675 17.5092 5.92675L17.4997 5.64954Z" fill="white" stroke="black" stroke-width="0.026496"/>
<path d="M17.8083 5.60221C17.8083 5.60221 17.4115 5.59926 17.4335 5.77235C17.4556 5.94563 17.5563 5.91104 17.5563 5.91104L17.7485 5.89513L17.8083 5.60224L17.8083 5.60221Z" fill="#0000FF" stroke="black" stroke-width="0.026496"/>
<path d="M18.0319 5.58331L17.802 5.60219C17.802 5.60219 17.6633 5.62107 17.6696 5.75346C17.676 5.88584 17.8113 5.88898 17.8113 5.88898L18.0349 5.87624L18.0319 5.58331Z" fill="white" stroke="black" stroke-width="0.026496"/>
<path d="M18.6477 7.49564C18.6477 7.49564 18.813 7.25199 18.8828 7.27804C18.9436 7.2983 18.8973 7.48687 18.8683 7.50438L18.6477 7.49564ZM17.5144 7.53916C17.4623 7.46662 17.3868 7.26652 17.3173 7.32156C17.2563 7.34182 17.3028 7.53039 17.3318 7.5479L17.5144 7.53916Z" fill="#5E0043" stroke="black" stroke-width="0.026496"/>
<path d="M17.6238 7.05725C17.6238 7.05725 17.9459 7.25578 18.0516 7.26096C18.1573 7.26615 18.4924 7.0032 18.4924 7.0032" stroke="black" stroke-width="0.026496"/>
<path d="M17.6548 6.27909L17.7166 6.20178L18.026 6.359L18.3404 6.21967L18.4022 6.28428L18.0517 6.53167L17.6548 6.27909H17.6548Z" fill="#5E0043" stroke="black" stroke-width="0.026496"/>
<path d="M17.4092 6.27491C17.4342 6.3065 17.6342 6.54954 17.6703 6.75063C17.7063 6.95175 17.6496 6.47479 17.6496 6.47479C17.6496 6.47479 17.897 6.59603 17.9048 6.67335C17.9125 6.75066 18.023 6.66816 18.0284 6.65485L17.312 6.18967L17.4092 6.27491ZM18.6315 6.26099C18.6315 6.26099 18.3712 6.60378 18.4022 6.97738C18.3485 6.79853 18.3919 6.50324 18.3919 6.50324L18.3352 6.53939C18.3352 6.53939 18.276 6.79197 18.2011 6.83053C18.1886 6.80051 18.191 6.78938 18.191 6.78938C18.191 6.78938 18.1111 6.89232 18.0956 6.90266C18.0801 6.91299 18.1007 7.25063 18.1007 7.25063C18.1007 7.25063 18.1276 7.49543 18.1583 7.49287C18.1232 7.50995 18.0801 7.53677 18.0801 7.53677L18.0481 6.88339L18.1212 6.80986C18.1212 6.80986 18.2192 6.69143 18.2269 6.57536C18.1844 6.61152 18.1367 6.62186 18.1367 6.62186C18.1367 6.62186 18.1238 6.78682 18.0852 6.80986C18.0465 6.83312 18.0455 6.87623 18.0455 6.87623L18.0364 6.66061L18.6315 6.26099Z" fill="#474747" stroke="#474747" stroke-width="0.02484" stroke-linejoin="round"/>
<path d="M18.0361 6.65781L18.0866 7.68859" stroke="black" stroke-width="0.02484" stroke-linecap="round"/>
<path d="M17.4021 7.15005C17.4021 7.15005 17.5206 7.21981 17.5645 7.43105C17.951 7.40263 18.0722 7.53937 18.0722 7.53937C18.0722 7.53937 18.3891 7.38737 18.5362 7.41556C18.5877 7.30746 18.7345 7.16817 18.7345 7.16817" stroke="black" stroke-width="0.026496"/>
<path d="M17.2405 6.13977L18.0362 6.66041L18.7528 6.17849C18.7528 6.17849 18.9023 6.09605 18.8893 6.03682C18.8766 5.9774 18.8249 6.00066 18.7991 6.011C18.7735 6.02133 18.0491 6.5342 18.0491 6.5342L17.2785 6.04697C17.2785 6.04697 17.2219 6.02905 17.2115 6.06505C17.2012 6.10121 17.2328 6.12169 17.2405 6.13977Z" fill="#B4B6B9" stroke="black" stroke-width="0.026496"/>
<path d="M18.6636 6.00465C18.6636 6.00465 18.4599 5.91822 18.4599 5.99313C18.4599 6.06785 18.4656 6.0756 18.4984 6.12369C18.531 6.17156 18.4734 6.20238 18.4734 6.20238C18.4734 6.20238 18.4656 6.18132 18.4541 6.14852C18.4426 6.11595 18.3331 6.09288 18.3236 6.05454C18.314 6.01598 18.3466 5.95457 18.2812 5.94702C18.216 5.93928 18.1527 5.97387 18.1392 6.04878C18.1256 6.12369 18.0412 6.29838 18.0412 6.29838L18.0527 5.90094C18.1962 5.91105 18.4625 5.94244 18.6673 5.96609C18.6059 5.95656 18.6904 5.97009 18.6886 5.99115C18.6829 6.00843 18.6616 6.01022 18.6636 6.00465ZM17.9432 5.90468C17.9069 5.90468 17.7242 5.92577 17.6781 5.95278C17.632 5.97963 17.753 6.02174 17.7377 6.05832C17.7224 6.09489 17.7205 6.16779 17.6628 6.15249C17.6052 6.137 17.4112 6.04104 17.4055 6.00843C17.3997 5.97582 17.3594 5.97387 17.3594 5.97387C17.3594 5.97387 17.9164 5.89892 17.9432 5.90468Z" fill="#474747" stroke="#474747" stroke-width="0.02484" stroke-linejoin="round"/>
<path d="M18.031 5.859L18.0296 6.34744M17.6548 5.28351C17.6548 5.28351 17.4316 5.64575 17.4272 5.65692" stroke="black" stroke-width="0.026496"/>
<path d="M18.0659 5.27454C18.0659 5.27454 18.1631 5.40708 18.152 5.44464C18.1917 5.47564 18.236 5.59944 18.236 5.59944" fill="url(#paint3_linear_16588_5109)"/>
<path d="M18.0659 5.27454C18.0659 5.27454 18.1631 5.40708 18.152 5.44464C18.1917 5.47564 18.236 5.59944 18.236 5.59944" stroke="black" stroke-width="0.026496"/>
<path d="M18.4415 5.25247C18.4415 5.25247 18.2316 5.54857 18.2382 5.57062" stroke="black" stroke-width="0.026496"/>
<path d="M17.3662 3.84456C17.3614 3.86111 17.3347 3.86751 17.3065 3.85887C17.2782 3.85023 17.2592 3.82978 17.2639 3.81324C17.2687 3.79666 17.2954 3.79026 17.3237 3.7989C17.3519 3.80754 17.3709 3.82802 17.3662 3.84456ZM17.451 3.83871C17.4558 3.85525 17.4825 3.86168 17.5108 3.85301C17.539 3.84434 17.558 3.82396 17.5533 3.80738C17.5485 3.79084 17.5218 3.7844 17.4936 3.79308C17.4653 3.80175 17.4463 3.82216 17.451 3.83871Z" fill="black"/>
<path d="M19.9077 9.97211C19.9077 9.97211 19.8299 9.98683 19.8325 9.99396C19.8348 10.0013 19.6061 10.0087 19.6013 10.0013C19.5964 9.99396 19.5671 10.0403 19.5671 10.0403L19.6037 10.0184C19.6037 10.0184 19.6596 10.0767 19.6767 10.0719C19.6938 10.0671 19.6693 10.0937 19.6743 10.0987C19.679 10.1035 19.6961 10.0889 19.6961 10.0889L20.0741 10.0826L19.9077 9.97211Z" fill="#FF7000" stroke="black" stroke-width="0.026496" stroke-linejoin="round"/>
<path d="M20.049 10.0897L19.7402 10.0987C19.7402 10.0987 19.6625 10.1692 19.6575 10.1861C19.6527 10.2032 19.7086 10.208 19.7086 10.208L19.7257 10.2664L19.7647 10.2519C19.7647 10.2519 20.0271 10.2909 20.2682 10.2372C20.3898 10.1947 20.4111 10.1436 20.3258 10.1126C20.2408 10.0816 20.0514 10.0909 20.049 10.0897Z" fill="#FF7000" stroke="black" stroke-width="0.02484" stroke-linejoin="round"/>
<path d="M18.9913 10.7233L19.5471 10.6984L19.4436 10.6106L20.9469 10.55L20.8951 10.4305L19.2119 10.4981L19.4144 10.5927L18.9597 10.6062L18.9732 10.6535L18.854 10.6489C18.854 10.6489 18.9867 10.7006 18.9913 10.7233Z" fill="url(#paint4_linear_16588_5109)" stroke="black" stroke-width="0.026496"/>
<path d="M19.6145 7.65282C19.5702 7.63077 19.3761 7.60434 19.1597 7.74563L19.1686 8.24461C19.1686 8.24461 19.4864 8.07232 19.641 8.11207C19.632 7.95746 19.632 7.75894 19.6145 7.65282Z" fill="url(#paint5_linear_16588_5109)" stroke="black" stroke-width="0.026496"/>
<path d="M16.5412 9.16765L15.2305 10.4689M17.1253 9.17722L16.0615 10.5782M17.0778 8.81155L15.6579 10.5307M15.6151 10.5068L15.7528 10.3455M17.3485 9.67581L16.7976 10.4357M16.7738 10.5355L16.7881 10.825M17.6001 9.9417L17.016 10.6732M17.4957 10.6161L17.7332 10.2267M17.5859 10.1508L17.301 10.4736M17.5005 9.84688L17.3058 10.0842M17.2487 9.50013C17.2487 9.50013 16.6551 10.3691 16.6646 10.4405M17.1869 9.38627C17.1728 9.39562 16.6741 10.0557 16.6741 10.0557M16.6456 10.2646L16.5554 10.3739M16.4414 10.5402L16.3037 10.7207" stroke="black" stroke-width="0.026496"/>
<path d="M16.4765 7.16755C16.4765 7.16755 16.4363 7.29394 16.4765 7.35711C16.5167 7.42031 16.7695 7.93161 16.7695 7.93161C16.7695 7.93161 16.9419 7.719 17.0051 7.71324C17.0682 7.70767 17.0394 8.26489 17.0394 8.26489C17.0394 8.26489 16.9361 8.36246 16.8729 8.3567C16.8097 8.35094 17.0279 8.57507 17.0222 8.76467C17.0164 8.95427 16.735 9.89638 16.6316 9.91346C16.5282 9.93074 16.6776 9.74118 16.6718 9.6895C16.666 9.63782 16.6373 9.67222 16.6144 9.61478C16.5914 9.55734 16.6489 9.4711 16.6373 9.41369C16.6258 9.35625 16.5741 9.36777 16.5684 9.32761C16.5626 9.28729 16.6029 9.27596 16.5971 9.22985C16.5914 9.18396 16.5282 9.19548 16.5339 9.15513C16.5397 9.115 16.5454 9.13228 16.5397 9.05756C16.534 8.98284 16.5225 9.10924 16.4593 9.115C16.3961 9.12076 16.3444 9.26444 16.3444 9.26444C16.3444 9.26444 16.218 9.44249 16.0916 9.36201C16.1663 9.52297 16.1089 9.59193 16.0801 9.5975C16.0514 9.60326 16.1031 9.7239 16.0341 9.72966C15.9652 9.73542 16.0858 9.9997 16.0054 10.0228C16.0916 10.0629 16.0226 10.1146 16.0226 10.1146C16.0226 10.1146 15.8235 10.1313 15.8675 10.3904C15.2816 10.1835 14.9944 9.82742 15.0001 9.46553C15.0058 9.10348 15.1207 8.77619 15.4022 8.65555C15.4826 8.35667 15.6205 8.03497 15.6205 8.03497C15.6205 8.03497 15.5976 7.90281 15.6148 7.81676C15.6321 7.73052 15.7124 7.64447 15.7124 7.64447C15.7124 7.64447 15.7009 7.43759 15.7067 7.33427C15.7125 7.23075 15.7527 7.18483 15.7584 7.12742C15.7641 7.07001 15.7412 6.77686 15.7986 6.72518C15.8561 6.6735 15.9652 6.67929 16.0226 6.64492C16.0801 6.61036 16.1548 6.54713 16.2295 6.55289C16.3041 6.55865 16.3673 6.61033 16.3673 6.61033C16.3673 6.61033 16.6489 6.61033 16.6661 6.71945C16.6833 6.82873 16.6086 6.86889 16.6086 6.86889C16.6086 6.86889 16.6489 7.02409 16.4765 7.16755H16.4765Z" fill="#8A9396" stroke="#2B2B2B" stroke-width="0.026496"/>
<path d="M16.2264 6.76958C16.2354 6.78622 16.2148 6.8148 16.1805 6.83339C16.1462 6.85198 16.111 6.85355 16.102 6.83691C16.093 6.82023 16.1135 6.79166 16.1479 6.77307C16.1822 6.75447 16.2174 6.75291 16.2264 6.76955V6.76958Z" fill="#CECFCF" stroke="#2B2B2B" stroke-width="0.026496"/>
<path d="M16.1789 6.79855C16.1789 6.80908 16.1694 6.81759 16.1576 6.81759C16.1458 6.81759 16.1362 6.80908 16.1362 6.79855C16.1362 6.78805 16.1458 6.77954 16.1576 6.77954C16.1694 6.77954 16.1789 6.78805 16.1789 6.79855Z" fill="black"/>
<path d="M16.5989 6.98871C16.5989 6.98871 16.6686 7.30029 16.5852 7.5153M16.6203 6.85239C16.6203 6.85239 16.7565 7.03242 16.7389 7.25639M16.6335 6.81284C16.6379 6.81284 16.7477 6.90941 16.7433 6.9752M16.6599 6.77328C16.6599 6.77328 16.7345 6.82596 16.7521 6.87863" stroke="#2B2B2B" stroke-width="0.01242"/>
<path d="M16.6248 6.74249C16.6248 6.74249 16.357 7.17728 16.3921 7.44953" stroke="black" stroke-width="0.026496"/>
<path d="M16.6422 6.72937C16.6422 6.72937 16.2866 6.94022 16.2207 7.62956" stroke="#2B2B2B" stroke-width="0.01242"/>
<path d="M16.6029 6.85675L16.4624 6.96203" stroke="black" stroke-width="0.026496"/>
<path d="M16.0889 7.66911C16.0889 7.66911 16.2865 6.84799 16.6378 6.72937" stroke="#2B2B2B" stroke-width="0.01242"/>
<path d="M16.7739 7.94572C16.7739 7.94572 16.9628 7.70866 17.0067 7.7174C17.0506 7.72613 17.0373 8.26626 17.0373 8.26626C17.0373 8.26626 16.8968 8.37157 16.8662 8.36722C16.8354 8.36284 17.0242 8.62197 17.0198 8.71858C17.0154 8.81519 17.0111 8.81513 17.0111 8.81513C17.0111 8.81513 17.0111 8.7581 16.9672 8.66588C16.9233 8.57365 16.9495 8.46815 16.6641 8.23548C16.5938 8.09058 16.8046 8.32329 16.8485 8.28812C16.8924 8.25314 16.7695 7.9501 16.7739 7.94572Z" fill="#2B2B2B" stroke="#2B2B2B" stroke-width="0.026496"/>
<path d="M16.4382 6.61035C16.4382 6.61035 16.3589 6.63202 16.348 6.66443C16.3372 6.69701 16.2903 6.72939 16.2651 6.71845C16.2398 6.70773 16.1929 6.66798 16.1929 6.66798" stroke="#2B2B2B" stroke-width="0.026496"/>
<path d="M15.9873 6.88815C15.9873 6.88815 15.8682 7.00719 15.926 7.02169C15.9837 7.03599 16.045 6.9279 16.045 6.9279C16.045 6.9279 16.045 7.1119 16.0956 7.08291C16.1461 7.05411 16.294 6.94956 16.294 6.94956C16.294 6.94956 16.3445 6.94579 16.3554 6.94956C16.3662 6.95311 16.4925 7.06124 16.5754 7.02169C16.5286 7.14428 16.4744 7.15881 16.4744 7.15881C16.4744 7.15881 16.3878 7.27068 16.276 7.24524C16.1641 7.21999 16.1353 7.17311 16.1353 7.17311C16.1353 7.17311 16.0414 7.18047 16.0126 7.13715C15.9837 7.09382 15.9729 7.06857 15.9729 7.06857C15.9729 7.06857 15.9188 7.12265 15.9043 7.09737C15.8899 7.07215 15.9043 6.92412 15.9873 6.88815Z" fill="#2B2B2B" stroke="#2B2B2B" stroke-width="0.02484" stroke-linejoin="round"/>
<path d="M16.6619 6.7222C16.6619 6.7222 16.4418 6.65724 16.366 6.76553C16.2903 6.87363 16.3083 6.93504 16.348 6.94579" stroke="#2B2B2B" stroke-width="0.026496"/>
<path d="M16.696 6.71607C16.696 6.74199 16.6775 6.76305 16.6545 6.76305C16.6316 6.76305 16.613 6.74203 16.613 6.71607C16.613 6.69012 16.6316 6.6691 16.6545 6.6691C16.6774 6.6691 16.696 6.69012 16.696 6.71607Z" fill="black"/>
<path d="M16.0554 7.27761C16.0554 7.27761 16.1452 7.41572 16.2522 7.45368C16.3592 7.49163 16.1779 7.52443 16.0709 7.45208C15.9933 7.3468 16.014 7.27086 16.014 7.27086C16.014 7.27086 16.0347 7.25 16.0554 7.27761ZM16.8235 8.09236C16.8235 8.09236 16.5715 7.74203 16.499 7.72296C16.4265 7.70408 16.5542 7.68859 16.6319 7.7627C16.7096 7.83681 16.6112 7.64187 16.6112 7.64187L16.8235 8.09236Z" fill="#2B2B2B" stroke="#2B2B2B" stroke-width="0.026496"/>
<path d="M16.0313 10.117C16.128 10.0911 16.5491 10.3586 16.644 10.4259C16.739 10.4931 16.9375 10.45 16.9375 10.45C16.9375 10.45 16.8459 10.5052 16.789 10.5191C16.7321 10.5329 16.9582 10.5329 16.9582 10.5329C16.9582 10.5329 16.4197 10.6813 15.8725 10.3932C15.8225 10.1688 15.9899 10.1187 16.0313 10.117Z" fill="#2B2B2B" stroke="#2B2B2B" stroke-width="0.02484" stroke-linejoin="round"/>
<path d="M16.6473 8.17863C16.6473 8.17863 16.5766 8.16493 16.5403 8.12339C16.5041 8.08205 16.4523 7.98013 16.3988 7.93699C16.3453 7.89389 16.0777 7.74723 15.9811 7.75754C15.8845 7.76784 15.8551 7.74723 15.843 7.73511C15.8309 7.72298 15.7912 7.74026 15.7981 7.79034C15.805 7.84042 15.7239 7.95091 15.7533 8.00256C15.7826 8.05443 15.9207 8.2649 15.9483 8.27184C15.9759 8.27879 15.9587 8.39447 15.9587 8.39447C15.9587 8.39447 16.0812 8.51863 16.1123 8.5256C16.1433 8.53255 16.1744 8.55504 16.171 8.58423C16.1675 8.61367 16.0363 8.77421 16.0363 8.77421C16.0363 8.77421 15.8948 8.84832 15.8931 8.88986C15.8913 8.9312 15.9276 9.01744 16.0398 9.04506C16.1519 9.07267 16.454 9.05024 16.4695 9.02439C16.4851 8.99856 16.5092 8.84317 16.4989 8.82765C16.4885 8.81213 16.4143 8.76547 16.3763 8.77242C16.3384 8.77936 16.3039 8.81037 16.3073 8.81731C16.3107 8.82429 16.2538 8.85347 16.2538 8.82586C16.2538 8.79824 16.366 8.67405 16.3763 8.68439C16.3867 8.69472 16.5455 8.71021 16.5748 8.7897C16.6042 8.86899 16.6042 8.92602 16.687 8.91747C16.7699 8.90874 16.8855 8.83283 16.8958 8.67405C16.9061 8.51527 16.8027 8.40816 16.7767 8.39267C16.7508 8.37719 16.6646 8.32528 16.6577 8.30125C16.6508 8.27699 16.6335 8.19773 16.6473 8.17863Z" fill="#2B2B2B" stroke="#2B2B2B" stroke-width="0.026496"/>
<path d="M15.1543 8.87953C15.1543 8.87953 15.4218 8.81041 15.4908 8.81217C15.5599 8.81377 15.8205 8.93457 15.8965 9.0089C15.9724 9.08301 16.1277 9.25908 16.2296 9.24359C16.3314 9.22807 16.3607 9.20743 16.3607 9.20743L16.321 9.28333C16.321 9.28333 16.2382 9.3058 16.1968 9.29546C16.1553 9.28513 16.0742 9.25908 15.9931 9.17978C15.912 9.1003 15.6617 8.88628 15.4494 8.9018C15.2371 8.91748 15.1146 9.12634 15.1146 9.12634C15.1146 9.12634 15.1163 9.02439 15.1249 9.00196C15.1336 8.97953 15.0801 9.05025 15.0801 9.05025L15.1543 8.87953Z" fill="#2B2B2B" stroke="#2B2B2B" stroke-width="0.026496"/>
<path d="M16.14 9.0866C16.1417 9.0882 16.2073 9.10548 16.3178 9.10548C16.4282 9.10548 16.4869 9.05716 16.4869 9.05716L16.48 9.01406L16.4973 8.95364C16.4973 8.95364 16.5818 9.03992 16.5801 9.0572C16.5784 9.07448 16.5456 9.08145 16.5456 9.08145L16.5335 9.03992L16.5042 9.07627C16.5042 9.07627 16.3436 9.20385 16.2556 9.18497C16.1676 9.1659 16.0865 9.10907 16.1089 9.09515C16.1314 9.08145 16.1435 9.0866 16.14 9.0866ZM15.7499 9.31275C15.7499 9.31275 15.6532 9.31096 15.6101 9.33163C15.567 9.3523 15.5514 9.37835 15.5221 9.37473C15.4928 9.37137 15.4703 9.33342 15.4789 9.3179C15.491 9.29368 15.548 9.26267 15.6567 9.27121C15.7654 9.27995 15.7499 9.31275 15.7499 9.31275H15.7499ZM16.0882 9.57505C16.0882 9.5699 16.0813 9.43358 16.0278 9.37832C15.9743 9.32308 15.9087 9.32308 15.8794 9.32984C15.85 9.33678 15.9881 9.3972 16.0019 9.43694C16.0157 9.47668 16.0606 9.58718 16.0485 9.6148C16.0364 9.64222 16.014 9.5371 15.9294 9.50769C15.8448 9.47828 15.7275 9.49396 15.7516 9.53195C15.7758 9.56993 15.8707 9.53531 15.9191 9.6164C15.9674 9.69748 16.0036 9.78392 16.0036 9.78392L16.0192 9.7251L16.0623 9.71316L16.0675 9.60088L16.0882 9.57505Z" fill="#2B2B2B" stroke="#2B2B2B" stroke-width="0.026496"/>
<path d="M16.0191 10.0168L15.9311 9.84072C15.9311 9.84072 15.9034 9.72863 15.8292 9.69746C15.755 9.66642 15.6566 9.6716 15.6549 9.70955C15.6532 9.74751 15.8137 9.79579 15.824 9.81669C15.8344 9.83733 15.8292 9.87192 15.8154 9.87352C15.8016 9.87528 15.7309 9.84767 15.6946 9.85624C15.6584 9.86498 15.6376 9.91147 15.5841 9.89775C15.5306 9.88383 15.4857 9.71314 15.5065 9.69583C15.5272 9.67855 15.4668 9.72687 15.4547 9.68194C15.4426 9.63701 15.472 9.49733 15.4512 9.48002C15.4305 9.46274 15.3304 9.40235 15.3287 9.39023C15.327 9.37829 15.3339 8.70344 15.8983 9.26264C15.6566 8.97608 15.5617 9.00709 15.5168 9.00549C15.484 9.00549 15.2648 9.02437 15.2096 9.30399C15.1544 9.58357 15.0888 9.4093 15.0888 9.4093C15.0888 9.4093 15.0767 9.53013 15.1354 9.56469C15.1941 9.59909 15.1078 9.69922 15.1078 9.69922C15.1078 9.69922 15.0025 9.4421 15.018 9.32981C14.9973 9.41963 14.9991 9.64219 15.132 9.88565C15.2873 10.0496 15.434 10.2016 15.824 10.3723C16.0295 10.0583 16.0191 10.0204 16.0191 10.0168Z" fill="#2B2B2B" stroke="#2B2B2B" stroke-width="0.02484" stroke-linejoin="round"/>
<path d="M15.6498 10.0186C15.6498 10.0186 15.7638 10.0323 15.7948 10.0911C15.8259 10.1497 15.8397 10.2395 15.8397 10.2395C15.8587 10.2016 15.8673 10.1688 15.9053 10.1412C15.9433 10.1135 15.9709 10.11 15.9691 10.0893C15.9674 10.0687 15.8483 9.94268 15.7879 9.93574C15.7275 9.9288 15.6222 10.0013 15.6222 10.0013C15.6222 10.0013 15.6033 10.0289 15.6498 10.0186Z" fill="#8A9396" stroke="#2B2B2B" stroke-width="0.02484" stroke-linejoin="round"/>
<path d="M15.9102 10.3155C15.9102 10.3155 16.2054 10.45 16.6916 10.4588" stroke="#8A9396" stroke-width="0.02484" stroke-linecap="round"/>
<path d="M16.8955 8.94507C16.8955 8.94507 16.8703 9.19288 16.6797 9.68171" stroke="#2B2B2B" stroke-width="0.02484" stroke-linecap="round"/>
<path d="M16.8576 9.09753C16.8576 9.09753 16.8004 9.27536 16.6416 9.4087" stroke="#2B2B2B" stroke-width="0.026496"/>
<path d="M12 -0.00250244V1.43L9.885 2.6075H12V5.39H9.2325L12 6.9275V8H10.7475L7.305 6.0875V8H4.695V5.72L0.6 8H0V6.5675L2.115 5.39H0V2.6075H2.7675L0 1.07V-0.00250244H1.2525L4.695 1.91V-0.00250244H7.305V2.2775L11.4 -0.00250244H12Z" fill="#F0F0F0"/>
<path d="M6.75 -0.00250244H5.25V3.2525H0V4.7525H5.25V8H6.75V4.7525H12V3.2525H6.75V-0.00250244Z" fill="#D80027"/>
<path d="M7.30493 5.38998L11.9999 7.99998V7.26498L8.63243 5.38998H7.30493Z" fill="#0052B4"/>
<path d="M7.30493 5.38998L11.9999 7.99998V7.26498L8.63243 5.38998H7.30493Z" fill="#F0F0F0"/>
<path d="M7.30493 5.38998L11.9999 7.99998V7.26498L8.63243 5.38998H7.30493Z" fill="#D80027"/>
<path d="M3.3675 5.38998L0 7.26498V7.99998L4.695 5.38998H3.3675Z" fill="#D80027"/>
<path d="M4.695 2.6075L0 -0.00250244V0.739998L3.3675 2.6075H4.695Z" fill="#0052B4"/>
<path d="M4.695 2.6075L0 -0.00250244V0.739998L3.3675 2.6075H4.695Z" fill="#F0F0F0"/>
<path d="M4.695 2.6075L0 -0.00250244V0.739998L3.3675 2.6075H4.695Z" fill="#D80027"/>
<path d="M8.63243 2.6075L11.9999 0.739998V-0.00250244L7.30493 2.6075H8.63243Z" fill="#D80027"/>
</g>
<defs>
<linearGradient id="paint0_linear_16588_5109" x1="18.9368" y1="5.52637" x2="18.9458" y2="4.94261" gradientUnits="userSpaceOnUse">
<stop stop-color="#474747"/>
<stop offset="1" stop-color="#FF5500"/>
</linearGradient>
<linearGradient id="paint1_linear_16588_5109" x1="18.737" y1="7.72162" x2="18.7382" y2="8.0528" gradientUnits="userSpaceOnUse">
<stop stop-color="#B50000"/>
<stop offset="1" stop-color="#FFC500"/>
</linearGradient>
<linearGradient id="paint2_linear_16588_5109" x1="20.1868" y1="7.92305" x2="20.7268" y2="7.91587" gradientUnits="userSpaceOnUse">
<stop stop-color="#D5DFFF"/>
<stop offset="1" stop-color="white"/>
</linearGradient>
<linearGradient id="paint3_linear_16588_5109" x1="18.8333" y1="5.4156" x2="19.0267" y2="5.4156" gradientUnits="userSpaceOnUse">
<stop stop-color="#474747"/>
<stop offset="1" stop-color="#FF5500"/>
</linearGradient>
<linearGradient id="paint4_linear_16588_5109" x1="21.6446" y1="10.6375" x2="21.5501" y2="10.05" gradientUnits="userSpaceOnUse">
<stop stop-color="#D5DFFF"/>
<stop offset="1" stop-color="white"/>
</linearGradient>
<linearGradient id="paint5_linear_16588_5109" x1="20.3183" y1="8.12472" x2="20.0774" y2="7.73572" gradientUnits="userSpaceOnUse">
<stop stop-color="#D5DFFF"/>
<stop offset="1" stop-color="white"/>
</linearGradient>
<clipPath id="clip0_16588_5109">
<rect width="24" height="16" fill="white"/>
</clipPath>
</defs>
</svg>
