<svg width="auto" height="auto" viewBox="0 0 24 16" fill="none" xmlns="http://www.w3.org/2000/svg">
<g clip-path="url(#clip0_16588_5237)">
<path d="M24 -0.00250244H0V15.995H24V-0.00250244Z" fill="#0052B4"/>
<path d="M8.87253 9.965L9.38253 11.0375L10.545 10.775L10.0275 11.84L10.9575 12.5825L9.79503 12.845V14.0375L8.87253 13.2875L7.94253 14.0375V12.845L6.78003 12.5825L7.71753 11.84L7.20003 10.775L8.35503 11.0375L8.87253 9.965Z" fill="#F0F0F0"/>
<path d="M18.1425 11.3L18.39 11.81L18.945 11.6825L18.6975 12.1925L19.14 12.545L18.585 12.6725V13.2425L18.1425 12.8825L17.7 13.2425V12.6725L17.145 12.545L17.595 12.1925L17.3475 11.6825L17.895 11.81L18.1425 11.3Z" fill="#F0F0F0"/>
<path d="M15.8626 5.86249L16.1101 6.37999L16.6651 6.24499L16.4176 6.76249L16.8601 7.11499L16.3051 7.23499V7.80499L15.8626 7.45249L15.4201 7.80499L15.4276 7.23499L14.8726 7.11499L15.3151 6.76249L15.0676 6.24499L15.6226 6.37999L15.8626 5.86249Z" fill="#F0F0F0"/>
<path d="M18.1425 2.75751L18.39 3.27501L18.945 3.14751L18.6975 3.65751L19.14 4.01001L18.585 4.13001V4.70001L18.1425 4.34751L17.7 4.70001V4.13001L17.145 4.01001L17.595 3.65751L17.3475 3.14751L17.895 3.27501L18.1425 2.75751Z" fill="#F0F0F0"/>
<path d="M20.1376 5.09L20.3776 5.6L20.9326 5.4725L20.6851 5.9825L21.1276 6.335L20.5726 6.4625L20.5801 7.0325L20.1376 6.6725L19.6951 7.0325V6.4625L19.1401 6.335L19.5826 5.9825L19.3351 5.4725L19.8901 5.6L20.1376 5.09Z" fill="#F0F0F0"/>
<path d="M18.7125 7.80499L18.9 8.39749H19.53L19.02 8.76499L19.215 9.35749L18.7125 8.98999L18.2025 9.35749L18.3975 8.76499L17.895 8.39749H18.5175L18.7125 7.80499Z" fill="#F0F0F0"/>
<path d="M12 -0.00250244V1.43L9.885 2.6075H12V5.39H9.2325L12 6.9275V8H10.7475L7.305 6.0875V8H4.695V5.72L0.6 8H0V6.5675L2.115 5.39H0V2.6075H2.7675L0 1.07V-0.00250244H1.2525L4.695 1.91V-0.00250244H7.305V2.2775L11.4 -0.00250244H12Z" fill="#F0F0F0"/>
<path d="M6.75 -0.00250244H5.25V3.2525H0V4.7525H5.25V8H6.75V4.7525H12V3.2525H6.75V-0.00250244Z" fill="#D80027"/>
<path d="M7.30493 5.38998L11.9999 7.99998V7.26498L8.63243 5.38998H7.30493Z" fill="#0052B4"/>
<path d="M7.30493 5.38998L11.9999 7.99998V7.26498L8.63243 5.38998H7.30493Z" fill="#F0F0F0"/>
<path d="M7.30493 5.38998L11.9999 7.99998V7.26498L8.63243 5.38998H7.30493Z" fill="#D80027"/>
<path d="M3.3675 5.38998L0 7.26498V7.99998L4.695 5.38998H3.3675Z" fill="#D80027"/>
<path d="M4.695 2.6075L0 -0.00250244V0.739998L3.3675 2.6075H4.695Z" fill="#0052B4"/>
<path d="M4.695 2.6075L0 -0.00250244V0.739998L3.3675 2.6075H4.695Z" fill="#F0F0F0"/>
<path d="M4.695 2.6075L0 -0.00250244V0.739998L3.3675 2.6075H4.695Z" fill="#D80027"/>
<path d="M8.63243 2.6075L11.9999 0.739998V-0.00250244L7.30493 2.6075H8.63243Z" fill="#D80027"/>
</g>
<defs>
<clipPath id="clip0_16588_5237">
<rect width="24" height="16" fill="white"/>
</clipPath>
</defs>
</svg>
