<svg width="24" height="16" viewBox="0 0 24 16" fill="none" xmlns="http://www.w3.org/2000/svg">
<g clip-path="url(#clip0_16588_5055)">
<path d="M0 -0.00372314H24V15.9963H0V-0.00372314Z" fill="#0052B4"/>
<path d="M0 -0.00372314H9.76V6.55628H0V-0.00372314Z" fill="#F0F0F0"/>
<path d="M0 -0.00372314H3.2V6.39628H0V-0.00372314Z" fill="#0052B4"/>
<path d="M6.40015 -0.00372314H9.60015V6.39628H6.40015V-0.00372314Z" fill="#D80027"/>
<path d="M14.2001 7.31628L14.7151 8.13628H16.1801V10.9963L15.0801 9.27628L13.6001 11.6363H14.3201L15.0801 10.2763L16.6401 13.0763L18.2001 10.2763L18.9601 11.6363H19.6801L18.2001 9.27628L17.1001 10.9963V9.41628H17.7601L18.2501 8.63628H17.1001V8.13628H18.5651L19.0801 7.31628H14.2001ZM15.9201 10.8163H14.3201V11.3763H15.9201V10.8163ZM18.9601 10.8163H17.3601V11.3763H18.9601V10.8163Z" fill="#F0F0F0"/>
<path d="M16.6402 13.6363L17.1339 15.1559L15.8413 14.2167H17.4391L16.1465 15.1559L16.6402 13.6363Z" fill="#F0F0F0"/>
<path d="M14.8399 12.2763L15.3336 13.7959L14.041 12.8567H15.6388L14.3462 13.7959L14.8399 12.2763Z" fill="#F0F0F0"/>
<path d="M18.44 12.2763L18.9337 13.7959L17.6411 12.8567H19.2389L17.9463 13.7959L18.44 12.2763Z" fill="#F0F0F0"/>
<path d="M13.3199 8.23633L13.8136 9.75591L12.521 8.81675H14.1188L12.8261 9.75591L13.3199 8.23633Z" fill="#F0F0F0"/>
<path d="M19.96 8.23633L20.4538 9.75591L19.1611 8.81675H20.7589L19.4663 9.75591L19.96 8.23633Z" fill="#F0F0F0"/>
</g>
<defs>
<clipPath id="clip0_16588_5055">
<rect width="24" height="16" fill="white"/>
</clipPath>
</defs>
</svg>
