<svg width="24" height="16" viewBox="0 0 24 16" fill="none" xmlns="http://www.w3.org/2000/svg">
<g clip-path="url(#clip0_16588_5067)">
<path d="M24 -0.00250244H0V15.995H24V-0.00250244Z" fill="#F0F0F0"/>
<path d="M24 2H0V4.0025H24V2Z" fill="#D80027"/>
<path d="M24 5.9975H0V8H24V5.9975Z" fill="#D80027"/>
<path d="M24 10.0025H0V12.005H24V10.0025Z" fill="#D80027"/>
<path d="M24 14H0V16.0025H24V14Z" fill="#D80027"/>
<path d="M12 -0.00250244H0V8.615H12V-0.00250244Z" fill="#2E52B2"/>
<path d="M4.6798 3.52997L4.4848 4.12247H3.8623L4.3648 4.48997L4.1698 5.08247L4.6798 4.71497L5.1823 5.08247L4.9948 4.48997L5.4973 4.12247H4.8748L4.6798 3.52997Z" fill="#F0F0F0"/>
<path d="M4.8748 6.26755L4.6798 5.67505L4.4848 6.26755H3.8623L4.3648 6.63505L4.1698 7.22755L4.6798 6.86755L5.1823 7.22755L4.9948 6.63505L5.4973 6.26755H4.8748Z" fill="#F0F0F0"/>
<path d="M2.22759 6.26755L2.03259 5.67505L1.84509 6.26755H1.21509L1.72509 6.63505L1.53009 7.22755L2.03259 6.86755L2.54259 7.22755L2.34759 6.63505L2.85759 6.26755H2.22759Z" fill="#F0F0F0"/>
<path d="M2.03259 3.52997L1.84509 4.12247H1.21509L1.72509 4.48997L1.53009 5.08247L2.03259 4.71497L2.54259 5.08247L2.34759 4.48997L2.85759 4.12247H2.22759L2.03259 3.52997Z" fill="#F0F0F0"/>
<path d="M4.6798 1.38501L4.4848 1.97751H3.8623L4.3648 2.34501L4.1698 2.93751L4.6798 2.57001L5.1823 2.93751L4.9948 2.34501L5.4973 1.97751H4.8748L4.6798 1.38501Z" fill="#F0F0F0"/>
<path d="M2.03259 1.38501L1.84509 1.97751H1.21509L1.72509 2.34501L1.53009 2.93751L2.03259 2.57001L2.54259 2.93751L2.34759 2.34501L2.85759 1.97751H2.22759L2.03259 1.38501Z" fill="#F0F0F0"/>
<path d="M7.31994 3.52997L7.12494 4.12247H6.50244L7.00494 4.48997L6.81744 5.08247L7.31994 4.71497L7.82244 5.08247L7.63494 4.48997L8.13744 4.12247H7.51494L7.31994 3.52997Z" fill="#F0F0F0"/>
<path d="M7.51494 6.26755L7.31994 5.67505L7.12494 6.26755H6.50244L7.00494 6.63505L6.81744 7.22755L7.31994 6.86755L7.82244 7.22755L7.63494 6.63505L8.13744 6.26755H7.51494Z" fill="#F0F0F0"/>
<path d="M10.1551 6.26755L9.96008 5.67505L9.77258 6.26755H9.14258L9.65258 6.63505L9.45758 7.22755L9.96008 6.86755L10.4701 7.22755L10.2751 6.63505L10.7776 6.26755H10.1551Z" fill="#F0F0F0"/>
<path d="M9.96008 3.52997L9.77258 4.12247H9.14258L9.65258 4.48997L9.45758 5.08247L9.96008 4.71497L10.4701 5.08247L10.2751 4.48997L10.7776 4.12247H10.1551L9.96008 3.52997Z" fill="#F0F0F0"/>
<path d="M7.31994 1.38501L7.12494 1.97751H6.50244L7.00494 2.34501L6.81744 2.93751L7.31994 2.57001L7.82244 2.93751L7.63494 2.34501L8.13744 1.97751H7.51494L7.31994 1.38501Z" fill="#F0F0F0"/>
<path d="M9.96008 1.38501L9.77258 1.97751H9.14258L9.65258 2.34501L9.45758 2.93751L9.96008 2.57001L10.4701 2.93751L10.2751 2.34501L10.7776 1.97751H10.1551L9.96008 1.38501Z" fill="#F0F0F0"/>
</g>
<defs>
<clipPath id="clip0_16588_5067">
<rect width="24" height="16" fill="white"/>
</clipPath>
</defs>
</svg>
